<svg width="83" height="321" viewBox="0 0 83 321" fill="none" xmlns="http://www.w3.org/2000/svg">
<path d="M42.894 202.415C44.5588 202.415 46.1826 202.502 47.7656 202.66C47.678 172.7 47.2224 15.5991 47.2224 7.3103C47.2224 3.44339 41.8192 0.849868 36.7724 0.849868C34.6987 0.849868 27.8703 1.36972 26.9999 8.02878C25.5513 19.133 31.4217 168.196 32.8295 203.238C36.0013 202.713 39.3367 202.415 42.8882 202.415L42.894 202.415Z" fill="#E1B765" stroke="black" stroke-width="0.352047" stroke-miterlimit="10"/>
<path d="M9.93701 216.475C3.57002 224.436 0.199592 235.71 0.199591 249.081C0.199588 280.939 20.1884 319.854 43.5185 319.854C65.505 319.854 81.9365 284.403 81.9365 252.702C81.9365 238.502 78.7822 226.381 72.8066 217.649C65.9957 207.684 55.9312 202.631 42.8876 202.631C28.3662 202.631 17.2795 207.292 9.93115 216.475L9.93701 216.475Z" fill="#E1B765" stroke="black" stroke-width="0.352047" stroke-miterlimit="10"/>
<path d="M16.8826 224.529C11.9292 230.726 9.30651 239.5 9.3065 249.897C9.3065 274.688 24.8618 304.969 43.0165 304.969C60.1256 304.969 72.9121 277.38 72.9121 252.719C72.9121 241.673 70.4529 232.239 65.8091 225.44C60.5111 217.688 52.678 213.757 42.5258 213.757C31.2288 213.757 22.6012 217.385 16.8826 224.534L16.8826 224.529Z" fill="#CCA75C" stroke="black" stroke-width="0.274597" stroke-miterlimit="10"/>
</svg>
