<svg width="471" height="460" viewBox="0 0 471 460" fill="none" xmlns="http://www.w3.org/2000/svg">
<path d="M394.453 55.7108L394.452 55.7108L78.0267 54.88L394.453 55.7108ZM394.453 55.7108C407.617 55.732 418.264 66.4401 418.228 79.603L417.452 381.023L417.452 381.024C417.431 394.188 406.723 404.835 393.56 404.799L77.1315 403.983C63.9685 403.948 53.3195 393.253 53.3553 380.091L52.8553 380.09M394.453 55.7108L52.8553 380.09M52.8553 380.09L53.3553 380.091L54.134 78.6562C54.134 78.6562 54.134 78.6562 54.134 78.6562C54.1697 65.4938 64.8608 54.8591 78.0262 54.88L52.8553 380.09ZM59.1856 349.173L59.1856 349.173C59.1782 353.319 62.518 356.688 66.6662 356.695C70.7979 356.703 74.1579 353.385 74.1877 349.256L74.1903 349.241L74.1904 349.2L74.345 288.19L74.345 288.19C74.3524 284.044 71.0126 280.676 66.8644 280.668C62.7188 280.661 59.3501 284.001 59.3427 288.149L59.1856 349.173ZM59.4293 253.895L59.4293 253.896C59.4219 258.041 62.7618 261.41 66.91 261.417C71.0555 261.425 74.4243 258.085 74.4317 253.937L74.5888 192.913L74.5888 192.912C74.5962 188.767 71.2563 185.398 67.1081 185.39C62.9626 185.383 59.5938 188.723 59.5864 192.871L59.4293 253.895ZM59.673 158.617L59.673 158.618C59.6656 162.763 63.0055 166.132 67.1537 166.14C71.2992 166.147 74.668 162.807 74.6754 158.659L74.8325 97.6348L74.8325 97.6344C74.8399 93.4888 71.5 90.1201 67.3518 90.1127C63.2063 90.1053 59.8376 93.4451 59.8301 97.5933L59.673 158.617ZM395.269 350.044L395.269 350.044C395.262 354.189 398.602 357.558 402.75 357.566C406.895 357.573 410.264 354.233 410.272 350.085L410.429 289.061L410.429 289.06C410.436 284.915 407.096 281.546 402.948 281.539C398.803 281.531 395.434 284.871 395.426 289.019L395.269 350.044ZM395.528 254.768L395.528 254.769C395.52 258.914 398.86 262.283 403.008 262.29C407.154 262.298 410.523 258.958 410.53 254.81L410.687 193.785L410.687 193.785C410.695 189.64 407.355 186.271 403.207 186.263C399.061 186.256 395.692 189.596 395.685 193.744L395.528 254.768ZM395.772 159.49L395.772 159.491C395.764 163.636 399.104 167.005 403.252 167.013C407.398 167.02 410.766 163.68 410.774 159.532L410.931 98.5077L410.931 98.5073C410.938 94.3618 407.599 90.993 403.45 90.9856C399.305 90.9782 395.936 94.3181 395.929 98.4663L395.772 159.49Z" fill="#626E7A" stroke="black"/>
<path d="M388.705 86.6944L387.964 373.735L387.961 373.75L387.961 373.791C387.955 377.384 385.037 380.28 381.441 380.273L89.362 379.519L89.3616 379.519C85.7683 379.513 82.8727 376.595 82.8791 372.999L83.6233 85.9032L83.6233 85.9028C83.6297 82.3096 86.5471 79.4141 90.1428 79.4203C90.143 79.4203 90.1431 79.4203 90.1432 79.4203L382.222 80.1745L382.223 80.1745C385.816 80.1809 388.712 83.0985 388.705 86.6944Z" fill="#4A535C" stroke="black"/>
</svg>
