<svg width="61" height="23" viewBox="0 0 61 23" fill="none" xmlns="http://www.w3.org/2000/svg">
<path d="M1.06543 22.5544V19.6289H60.4091V22.5544H1.06543Z" fill="#A36707" stroke="black" stroke-width="0.72167" stroke-linecap="round" stroke-linejoin="round"/>
<path d="M6.60782 3.69455C6.73949 3.53156 7.01559 3.34132 7.4775 3.14384C7.92974 2.95049 8.5213 2.76616 9.23931 2.59319C10.6744 2.24747 12.5768 1.95605 14.7974 1.72134C19.2362 1.25216 24.9087 1.0134 30.5755 1.00933C36.2424 1.00525 41.8928 1.23588 46.2876 1.70295C48.4864 1.93663 50.3605 2.22846 51.7618 2.57652C52.463 2.75068 53.0352 2.93638 53.4665 3.13093C53.9084 3.33027 54.1574 3.51929 54.2669 3.67514C54.8736 4.53933 55.2016 5.93992 55.3254 7.61896C55.4481 9.28364 55.3666 11.163 55.2012 12.9361C55.0359 14.7073 54.7878 16.3623 54.5808 17.5752C54.4774 18.1814 54.3843 18.6764 54.3172 19.0196C54.2988 19.1137 54.2824 19.1964 54.2682 19.2668H6.61375C6.59722 19.194 6.57786 19.1076 6.55606 19.0086C6.48023 18.664 6.37507 18.167 6.25817 17.5586C6.02425 16.3413 5.7439 14.6813 5.55715 12.9074C5.37017 11.1313 5.27833 9.25283 5.41678 7.59491C5.55641 5.92284 5.92584 4.5388 6.60782 3.69455Z" fill="#FDEBC7" stroke="black" stroke-width="0.72167"/>
</svg>
