<svg width="72" height="51" viewBox="0 0 72 51" fill="none" xmlns="http://www.w3.org/2000/svg">
<path d="M35.5986 1.26172C16.2335 1.26172 0.53418 6.70367 0.53418 13.4162L0.536618 13.4775C0.536618 13.5357 0.542308 13.5939 0.545559 13.6521L0.540682 13.6204L0.536618 14.3884V14.4656C0.538244 14.6592 0.545559 14.8634 0.5545 15.0708C0.556938 15.1226 0.559377 15.1744 0.561815 15.2273C0.572381 15.4305 0.585386 15.6389 0.602455 15.8536L0.604081 15.8811C0.621963 16.1075 0.644721 16.3413 0.670731 16.5804C0.67642 16.6344 0.682923 16.6883 0.688612 16.7423C0.714622 16.9729 0.74307 17.2078 0.776395 17.449L0.781272 17.4849C0.817036 17.742 0.857676 18.0065 0.900754 18.2752C0.908882 18.3249 0.917823 18.3747 0.925951 18.4254C0.96903 18.6846 1.01536 18.9481 1.06657 19.2168L1.07226 19.2496C1.12753 19.5373 1.18686 19.8293 1.25107 20.1266L1.2779 20.2493C1.34048 20.5392 1.40794 20.8322 1.47947 21.1295L1.48435 21.1496C1.56075 21.4638 1.64203 21.7822 1.72738 22.1049L1.75095 22.1938C1.83548 22.509 1.92489 22.8264 2.01917 23.1491L2.02405 23.1649C2.12321 23.5013 2.22725 23.8409 2.33698 24.1837L2.35324 24.2355C2.46134 24.572 2.57432 24.9105 2.69299 25.2522L2.69786 25.267C2.8206 25.6193 2.94902 25.9748 3.08313 26.3323L3.09045 26.3514C3.22212 26.7026 3.3603 27.0549 3.50335 27.4093L3.51473 27.4368C3.80572 28.152 4.12027 28.8745 4.45921 29.5981L4.47303 29.6288C8.83697 38.9258 17.282 48.5106 31.9978 49.8626C32.3262 49.8923 32.6586 49.9176 32.9935 49.9399C33.1211 49.9483 33.2504 49.9547 33.3796 49.9621C33.6275 49.9758 33.8778 49.9875 34.1298 49.997C34.2493 50.0012 34.3688 50.0065 34.4891 50.0097C34.8556 50.0203 35.2247 50.0266 35.5986 50.0266C37.3412 50.0266 39.0009 49.9293 40.5819 49.7441C41.5304 49.6331 42.4505 49.4902 43.3429 49.3189C43.6404 49.2617 43.9347 49.2014 44.2265 49.1369C45.974 48.755 47.6126 48.2578 49.148 47.6622C49.404 47.5627 49.6568 47.4612 49.9072 47.3564C50.2794 47.2009 50.6468 47.0401 51.0069 46.873C53.2852 45.8161 55.318 44.5381 57.124 43.0983C57.615 42.7069 58.0905 42.3027 58.5489 41.8891C59.0073 41.4754 59.4503 41.0501 59.877 40.6164C60.1225 40.3667 60.3614 40.1139 60.5963 39.8589C61.3839 39.0041 62.1163 38.1197 62.7942 37.212C63.3217 36.5053 63.8175 35.7849 64.2824 35.0549C64.4377 34.8116 64.5888 34.5672 64.7368 34.3228C65.0334 33.833 65.3163 33.34 65.5862 32.8449C66.2608 31.6071 66.8558 30.3567 67.3759 29.1147C67.584 28.6175 67.7807 28.1223 67.966 27.6294C68.3367 26.6434 68.6634 25.668 68.9479 24.7127C69.0901 24.2355 69.2226 23.7637 69.3454 23.2972C69.5291 22.5989 69.6908 21.9145 69.8322 21.2501C69.9737 20.5847 70.0948 19.9393 70.1972 19.3173C70.2313 19.1099 70.2638 18.9047 70.2931 18.7026C70.3532 18.2985 70.4053 17.906 70.45 17.5251C70.4922 17.1655 70.5272 16.8174 70.5556 16.4799C70.5881 16.1044 70.6133 15.7436 70.6304 15.4008C70.6385 15.2379 70.645 15.0782 70.6499 14.9237C70.6548 14.7682 70.6581 14.6169 70.6597 14.4699L70.645 13.7801V13.7854C70.6532 13.6849 70.6581 13.5833 70.6597 13.4807L70.6621 13.4194C70.6637 6.70367 54.9644 1.26172 35.5986 1.26172Z" fill="#FF967F" stroke="black" stroke-width="0.811368" stroke-miterlimit="10"/>
<path d="M70.6516 13.5805C70.6516 20.8251 55.4839 25.6408 35.6198 25.6408C15.7556 25.6408 0.587891 20.8262 0.587891 13.5805C0.587891 6.33478 15.715 1.30859 35.5791 1.30859C55.4432 1.30859 70.6516 6.33584 70.6516 13.5805Z" fill="#FFA693" stroke="black" stroke-width="0.811368" stroke-miterlimit="10"/>
<path d="M3.36865 13.8912L3.36621 13.834C3.37271 8.53808 17.8016 4.24609 35.5988 4.24609C53.3959 4.24609 67.8248 8.53808 67.8313 13.834L67.8289 13.8975C67.8273 13.9747 67.8216 14.0509 67.8143 14.126V14.1324L67.8102 14.1662C67.8029 14.2308 67.7931 14.2942 67.7817 14.3577V14.3641L67.7728 14.4085C67.759 14.4751 67.7435 14.5418 67.7257 14.6084L67.7183 14.6359C67.4721 15.5077 66.8226 16.3254 65.8253 17.0797C65.8253 17.0797 59.631 22.6095 35.5963 22.6444C11.5617 22.6793 5.59329 17.2331 5.59329 17.2331C5.59329 17.2331 3.54259 15.7817 3.36621 13.8351" fill="#E37A3F"/>
<path d="M3.36865 13.8912L3.36621 13.834C3.37271 8.53808 17.8016 4.24609 35.5988 4.24609C53.3959 4.24609 67.8248 8.53808 67.8313 13.834L67.8289 13.8975C67.8273 13.9747 67.8216 14.0509 67.8143 14.126V14.1324L67.8102 14.1662C67.8029 14.2308 67.7931 14.2942 67.7817 14.3577V14.3641L67.7728 14.4085C67.759 14.4751 67.7435 14.5418 67.7257 14.6084L67.7183 14.6359C67.4721 15.5077 66.8226 16.3254 65.8253 17.0797C65.8253 17.0797 59.631 22.6095 35.5963 22.6444C11.5617 22.6793 5.59329 17.2331 5.59329 17.2331C5.59329 17.2331 3.54259 15.7817 3.36621 13.8351" stroke="black" stroke-width="0.811368" stroke-miterlimit="10"/>
</svg>
