<svg width="93" height="50" viewBox="0 0 93 50" fill="none" xmlns="http://www.w3.org/2000/svg">
<path d="M46.4825 0.587891C21.2775 0.587891 0.84375 6.02984 0.84375 12.7424L0.846924 12.8037C0.846924 12.8619 0.854329 12.9201 0.858561 12.9783L0.852213 12.9465L0.846924 13.7146V13.7918C0.84904 13.9854 0.858561 14.1896 0.870198 14.3969C0.873372 14.4488 0.876546 14.5006 0.879719 14.5535C0.893472 14.7566 0.910399 14.965 0.932615 15.1798L0.934731 15.2073C0.958006 15.4337 0.987627 15.6675 1.02148 15.9066C1.02889 15.9605 1.03735 16.0145 1.04476 16.0685C1.07861 16.2991 1.11564 16.5339 1.15901 16.7751L1.16536 16.8111C1.21191 17.0682 1.2648 17.3327 1.32087 17.6014C1.33145 17.6511 1.34309 17.7008 1.35367 17.7516C1.40974 18.0108 1.47004 18.2742 1.53669 18.5429L1.54409 18.5757C1.61603 18.8635 1.69326 19.1555 1.77684 19.4527L1.81175 19.5755C1.89321 19.8653 1.98102 20.1584 2.07411 20.4557L2.08046 20.4758C2.1799 20.79 2.2857 21.1084 2.39678 21.4311L2.42746 21.5199C2.53748 21.8352 2.65385 22.1526 2.77657 22.4752L2.78292 22.4911C2.91199 22.8275 3.0474 23.1671 3.19022 23.5099L3.21138 23.5617C3.35208 23.8981 3.49913 24.2367 3.65359 24.5784L3.65994 24.5932C3.81968 24.9455 3.98684 25.3009 4.16139 25.6585L4.17091 25.6776C4.3423 26.0288 4.52214 26.3811 4.70834 26.7355L4.72315 26.763C5.10188 27.4781 5.5113 28.2007 5.95245 28.9243L5.97044 28.955C11.6504 38.252 22.6422 47.8368 41.7959 49.1888C42.2233 49.2184 42.656 49.2438 43.0919 49.266C43.2579 49.2745 43.4262 49.2808 43.5944 49.2883C43.917 49.302 44.2429 49.3136 44.5708 49.3232C44.7263 49.3274 44.8819 49.3327 45.0384 49.3359C45.5155 49.3464 45.9958 49.3528 46.4825 49.3528C48.7507 49.3528 50.9109 49.2555 52.9686 49.0703C54.2032 48.9592 55.4008 48.8164 56.5624 48.645C56.9496 48.5879 57.3325 48.5276 57.7123 48.4631C59.9869 48.0812 62.1196 47.5839 64.118 46.9883C64.4513 46.8889 64.7803 46.7873 65.1061 46.6826C65.5907 46.5271 66.0688 46.3663 66.5375 46.1991C69.5029 45.1423 72.1487 43.8643 74.4994 42.4245C75.1384 42.033 75.7573 41.6289 76.354 41.2153C76.9506 40.8016 77.5272 40.3763 78.0826 39.9426C78.4021 39.6929 78.7131 39.4401 79.0189 39.1851C80.044 38.3303 80.9972 37.4459 81.8795 36.5382C82.5661 35.8315 83.2114 35.111 83.8165 34.3811C84.0186 34.1378 84.2154 33.8934 84.4079 33.649C84.7941 33.1592 85.1622 32.6662 85.5135 32.1711C86.3915 30.9333 87.1659 29.6828 87.843 28.4408C88.1138 27.9436 88.3698 27.4485 88.611 26.9555C89.0935 25.9695 89.5187 24.9941 89.889 24.0388C90.0742 23.5617 90.2466 23.0899 90.4063 22.6233C90.6454 21.9251 90.856 21.2406 91.04 20.5763C91.2241 19.9108 91.3817 19.2655 91.515 18.6434C91.5595 18.4361 91.6018 18.2308 91.6399 18.0288C91.7182 17.6247 91.7859 17.2322 91.8441 16.8513C91.8991 16.4916 91.9446 16.1436 91.9816 15.8061C92.0239 15.4305 92.0567 15.0698 92.0789 14.727C92.0895 14.5641 92.098 14.4043 92.1043 14.2499C92.1106 14.0944 92.1149 13.9431 92.117 13.796L92.098 13.1063V13.1116C92.1085 13.0111 92.1149 12.9095 92.117 12.8069L92.1202 12.7455C92.1223 6.02984 71.6885 0.587891 46.4825 0.587891Z" fill="#FFD87F" stroke="black" stroke-width="0.811368" stroke-miterlimit="10"/>
<path d="M92.1069 12.9067C92.1069 20.1513 72.365 24.967 46.5105 24.967C20.6559 24.967 0.914062 20.1524 0.914062 12.9067C0.914062 5.66095 20.603 0.634766 46.4576 0.634766C72.3121 0.634766 92.1069 5.66201 92.1069 12.9067Z" fill="#FFE193" stroke="black" stroke-width="0.811368" stroke-miterlimit="10"/>
<path d="M4.53247 13.2193L4.5293 13.1622C4.53776 7.86621 23.318 3.57422 46.4822 3.57422C69.6465 3.57422 88.4267 7.86621 88.4352 13.1622L88.432 13.2256C88.4299 13.3029 88.4225 13.379 88.413 13.4541V13.4605L88.4077 13.4944C88.3981 13.5589 88.3854 13.6224 88.3706 13.6858V13.6922L88.359 13.7366C88.341 13.8033 88.3209 13.8699 88.2976 13.9366L88.2881 13.9641C87.9676 14.8358 87.1223 15.6536 85.8242 16.4079C85.8242 16.4079 77.7618 21.9376 46.4791 21.9725C15.1963 22.0074 7.428 16.5613 7.428 16.5613C7.428 16.5613 4.75887 15.1098 4.5293 13.1632" fill="#E3B23F"/>
<path d="M4.53247 13.2193L4.5293 13.1622C4.53776 7.86621 23.318 3.57422 46.4822 3.57422C69.6465 3.57422 88.4267 7.86621 88.4352 13.1622L88.432 13.2256C88.4299 13.3029 88.4225 13.379 88.413 13.4541V13.4605L88.4077 13.4944C88.3981 13.5589 88.3854 13.6224 88.3706 13.6858V13.6922L88.359 13.7366C88.341 13.8033 88.3209 13.8699 88.2976 13.9366L88.2881 13.9641C87.9676 14.8358 87.1223 15.6536 85.8242 16.4079C85.8242 16.4079 77.7618 21.9376 46.4791 21.9725C15.1963 22.0074 7.428 16.5613 7.428 16.5613C7.428 16.5613 4.75887 15.1098 4.5293 13.1632" stroke="black" stroke-width="0.811368" stroke-miterlimit="10"/>
</svg>
