<svg width="97" height="37" viewBox="0 0 97 37" fill="none" xmlns="http://www.w3.org/2000/svg">
<path d="M93.4394 30.2902C94.5038 28.5361 94.5762 28.6283 94.8582 26.7291C95.118 24.9864 95.0822 24.6749 94.6795 22.8346C71.9682 20.2281 49.6608 15.1853 26.9496 12.5788C26.8807 12.5711 26.8119 12.5634 26.7432 12.5545C26.8807 13.181 26.913 13.7925 26.8425 14.3894C26.7643 15.0402 26.5631 15.6704 26.2393 16.2766C48.5859 21.272 71.0945 25.2925 93.4398 30.2878L93.4394 30.2902Z" fill="#C7D3D1" stroke="black" stroke-width="0.811368" stroke-miterlimit="10"/>
<path d="M31.7063 15.2577C30.7631 20.9288 23.2831 24.4091 14.9993 23.0313C6.71558 21.6535 0.764908 15.9393 1.70814 10.2683C2.65137 4.59727 10.1313 1.11692 18.4151 2.49472C26.6989 3.87252 32.6495 9.58672 31.7063 15.2577Z" fill="#C7D3D1" stroke="black" stroke-width="0.811368" stroke-miterlimit="10"/>
<path d="M28.1543 14.6969C27.4323 19.038 21.7068 21.7023 15.3661 20.6476C9.02544 19.593 4.47061 15.2189 5.19264 10.8778C5.91468 6.53673 11.6402 3.87251 17.9808 4.92713C24.3215 5.98175 28.8764 10.3558 28.1543 14.6969Z" fill="#B3B3B3" stroke="black" stroke-width="0.811368" stroke-miterlimit="10"/>
</svg>
