<svg width="24" height="48" viewBox="0 0 24 48" fill="none" xmlns="http://www.w3.org/2000/svg">
<path d="M6.40579 8.26059V9.82224L3.66807 12.666C3.66807 12.666 1.43483 14.7064 1.41555 18.1029C1.39627 21.4993 1.43483 41.2192 1.43483 41.2192C1.43483 41.2192 1.46375 43.9184 2.77799 44.937C4.09222 45.9556 4.92767 46.1613 4.92767 46.1613C4.92767 46.1613 6.48612 46.8939 10.0529 47.2827C13.6196 47.6715 16.669 46.8939 16.669 46.8939C16.669 46.8939 19.2943 46.3219 20.2743 45.766C20.2743 45.766 22.2505 44.786 22.4915 42.993C22.7325 41.2 22.6779 41.2932 22.7132 40.146C22.7486 38.9989 22.7132 18.029 22.7132 18.029C22.7132 18.029 23.102 15.8054 20.9459 13.1898C18.7898 10.5742 17.7326 9.87044 17.7326 9.87044V8.17383L6.40579 8.26059Z" fill="#762621" stroke="black" stroke-width="0.72167" stroke-miterlimit="10"/>
<path d="M5.17246 13.3665C5.17246 13.3665 11.2263 16.2392 18.8707 13.5207C18.8707 13.5207 21.0782 14.7 21.1778 18.4981C21.2774 22.2962 21.075 40.6601 21.075 40.6601C21.075 40.6601 21.1778 43.0187 19.176 43.6871C17.1741 44.3554 12.4024 45.2262 9.47826 44.7121C6.55417 44.198 3.16737 43.8927 3.11596 41.4281C3.06455 38.9635 3.16737 18.0836 3.16737 18.0836C3.16737 18.0836 2.75607 16.0303 5.16925 13.3633L5.17246 13.3665Z" fill="#440A06" stroke="black" stroke-width="0.72167" stroke-miterlimit="10"/>
<path d="M1.41576 18.1025C1.41576 18.1025 3.2152 18.8705 9.63856 18.9733C16.0619 19.0761 18.7 18.7677 18.7 18.7677C18.7 18.7677 22.4307 18.4592 22.7134 18.0254L22.6652 40.4477C22.6652 40.4477 21.4635 41.1128 14.4231 41.3185C7.38283 41.5241 2.70108 40.8076 2.70108 40.8076C2.70108 40.8076 1.42219 40.5762 1.39648 40.4734L1.41576 18.1025Z" fill="#FFF3DC" stroke="black" stroke-width="0.72167" stroke-miterlimit="10"/>
<path d="M1.44156 20.0665C1.44156 20.0665 4.58737 21.0851 11.0172 20.9983C17.4469 20.9116 19.2624 20.7316 19.2624 20.7316C19.2624 20.7316 22.4982 20.3332 22.7649 20.0215L22.7489 21.5703C22.7489 21.5703 21.2483 22.319 13.3564 22.4636C5.4646 22.6082 1.78539 21.6763 1.78539 21.6763L1.42871 21.4964L1.44478 20.0633L1.44156 20.0665Z" fill="#E7A939" stroke="black" stroke-width="0.72167" stroke-miterlimit="10"/>
<path d="M1.40641 36.9805C1.40641 36.9805 4.55221 37.9991 10.982 37.9124C17.4118 37.8256 19.2273 37.6457 19.2273 37.6457C19.2273 37.6457 22.4631 37.2472 22.7298 36.9355L22.7137 38.4844C22.7137 38.4844 21.2131 39.233 13.3213 39.3776C5.42944 39.5222 1.75023 38.5904 1.75023 38.5904L1.39355 38.4104L1.40962 36.9773L1.40641 36.9805Z" fill="#E7A939" stroke="black" stroke-width="0.72167" stroke-miterlimit="10"/>
<path d="M4.75418 2.33279C4.75418 2.33279 4.65135 7.23626 4.77024 7.44834C4.88914 7.66042 5.70531 7.9946 5.90775 8.05244C6.11018 8.11028 8.31128 8.74972 11.6884 8.71438C15.0656 8.67903 17.2956 8.3095 17.2956 8.3095C17.2956 8.3095 18.883 8.08778 19.3425 7.48047L19.3778 7.4387C19.3778 7.4387 19.6702 2.95617 19.3682 2.19141L4.75739 2.336L4.75418 2.33279Z" fill="#B45216" stroke="black" stroke-width="0.72167" stroke-miterlimit="10"/>
<path d="M5.71815 1.58987C5.71815 1.58987 9.68013 0.372037 15.7789 1.11109C21.8778 1.85015 18.3849 2.74023 18.3849 2.74023C18.3849 2.74023 16.3124 3.28327 14.6575 3.36682C13.0027 3.45036 8.22451 3.64637 5.55106 2.69203C5.55106 2.69203 3.5781 2.26466 5.71815 1.58987Z" fill="#EF9533" stroke="black" stroke-width="0.72167" stroke-miterlimit="10"/>
<path d="M5.78223 2.76884L6.18067 2.86202L6.17103 8.07076C6.17103 8.07076 5.84971 8.0322 5.82079 7.96793C5.79187 7.90367 5.78223 2.76562 5.78223 2.76562V2.76884Z" fill="#822D08" stroke="black" stroke-width="0.72167" stroke-miterlimit="10"/>
<path d="M8.61067 3.29883L8.96092 3.33417L8.98662 8.59432L8.58496 8.54291L8.61067 3.29883Z" fill="#822D08" stroke="black" stroke-width="0.72167" stroke-miterlimit="10"/>
<path d="M11.8818 3.48242H12.2674L12.2739 8.73293L11.9011 8.70722L11.8818 3.48242Z" fill="#822D08" stroke="black" stroke-width="0.72167" stroke-miterlimit="10"/>
<path d="M15.2266 3.33707L15.5479 3.32422L15.5607 8.55866L15.2458 8.58758L15.2266 3.33707Z" fill="#822D08" stroke="black" stroke-width="0.72167" stroke-miterlimit="10"/>
<path d="M18.0254 2.88489L18.3724 2.79492L18.3564 7.93939C18.3564 7.93939 18.0993 8.02936 18.0672 8.01972C18.035 8.01008 18.0286 2.88489 18.0286 2.88489H18.0254Z" fill="#822D08" stroke="black" stroke-width="0.72167" stroke-miterlimit="10"/>
<path d="M6.47998 1.82119C6.47998 1.82119 5.19788 2.05897 6.47998 2.35138C8.11554 2.72733 14.9245 2.80767 17.0742 2.49598C17.0742 2.49598 19.5934 2.1136 17.0967 1.81476C14.6 1.51593 10.6508 1.10784 6.47998 1.81797V1.82119Z" stroke="black" stroke-width="0.72167" stroke-miterlimit="10"/>
<path d="M6.23262 28.2486C6.00938 28.2486 5.83078 28.3793 5.78294 28.5835H6.67274C6.6249 28.3793 6.45587 28.2486 6.23262 28.2486ZM6.87685 29.2755C6.73652 29.4445 6.51647 29.5402 6.24857 29.5402C5.74467 29.5402 5.41299 29.2149 5.41299 28.7397C5.41299 28.2613 5.74467 27.936 6.23262 27.936C6.67593 27.936 7.01399 28.255 7.01399 28.644V28.66C7.01399 28.7844 6.93107 28.8641 6.80669 28.8641H5.78294C5.8244 29.0874 6.003 29.2277 6.24857 29.2277C6.41441 29.2277 6.54198 29.1607 6.61852 29.0714C6.65679 29.0268 6.69825 29.0076 6.74928 29.0076C6.85134 29.0076 6.91512 29.0714 6.91512 29.1703C6.91512 29.2085 6.90236 29.2436 6.87685 29.2755ZM8.15429 28.727L8.60397 29.2085C8.63906 29.2468 8.66138 29.2915 8.66138 29.3457C8.66138 29.4509 8.59441 29.5211 8.48916 29.5211C8.42857 29.5211 8.38073 29.4956 8.34246 29.4509L7.90872 28.947L7.47179 29.4573C7.43352 29.4988 7.38887 29.5211 7.33466 29.5211C7.2326 29.5211 7.16563 29.4509 7.16563 29.3489C7.16563 29.2915 7.18476 29.2532 7.22303 29.2149L7.67272 28.7333L7.23898 28.2677C7.2039 28.2294 7.18157 28.1848 7.18157 28.1306C7.18157 28.0253 7.24855 27.9552 7.35379 27.9552C7.41439 27.9552 7.46223 27.9807 7.5005 28.0285L7.9151 28.5101L8.33927 28.019C8.37754 27.9775 8.42219 27.9552 8.4764 27.9552C8.57846 27.9552 8.64543 28.0253 8.64543 28.1274C8.64543 28.1848 8.6263 28.2231 8.58803 28.2613L8.15429 28.727ZM10.0246 29.1798C10.0246 29.2149 10.015 29.2468 10.0023 29.2723C9.91296 29.4477 9.73117 29.5402 9.4856 29.5402C9.11884 29.5402 8.89878 29.3106 8.89878 28.9247V27.6362C8.89878 27.5182 8.96575 27.4481 9.07419 27.4481C9.18262 27.4481 9.2496 27.5182 9.2496 27.6362V27.9743H9.77901C9.88744 27.9743 9.95442 28.0349 9.95442 28.137C9.95442 28.2358 9.88744 28.2964 9.77901 28.2964H9.2496V28.9343C9.2496 29.1161 9.34527 29.2181 9.50155 29.2181C9.6036 29.2181 9.68014 29.1703 9.72798 29.0937C9.75668 29.0491 9.80133 29.0172 9.86193 29.0172C9.95442 29.0172 10.0246 29.0746 10.0246 29.1798ZM11.0837 27.9456C11.1889 27.9456 11.2591 28.0126 11.2591 28.121C11.2591 28.2294 11.1889 28.2964 11.0837 28.2964C10.7775 28.2964 10.5989 28.4591 10.5989 28.8322V29.3329C10.5989 29.4509 10.5351 29.5211 10.4235 29.5211C10.3151 29.5211 10.2481 29.4509 10.2481 29.3329V28.1433C10.2481 28.0285 10.3151 27.9552 10.4235 27.9552C10.5351 27.9552 10.5989 28.0285 10.5989 28.1433V28.2007H10.6053C10.701 28.0349 10.8636 27.9456 11.0837 27.9456ZM12.7661 27.9552C12.8778 27.9552 12.9447 28.0285 12.9447 28.1433V29.3329C12.9447 29.4509 12.8778 29.5211 12.7661 29.5211C12.6609 29.5211 12.5939 29.4509 12.5939 29.3329V29.317H12.5875C12.4695 29.4605 12.2877 29.5402 12.0581 29.5402C11.6084 29.5402 11.3118 29.2213 11.3118 28.7397C11.3118 28.255 11.6084 27.936 12.0581 27.936C12.2877 27.936 12.4695 28.0158 12.5875 28.1593H12.5939V28.1433C12.5939 28.0285 12.6609 27.9552 12.7661 27.9552ZM12.1283 29.2181C12.4026 29.2181 12.5939 29.0204 12.5939 28.7397C12.5939 28.4559 12.4026 28.2581 12.1283 28.2581C11.8572 28.2581 11.669 28.4527 11.669 28.7397C11.669 29.0236 11.8572 29.2181 12.1283 29.2181ZM13.4851 27.716C13.3607 27.716 13.2778 27.6331 13.2778 27.5055C13.2778 27.3779 13.3607 27.295 13.4851 27.295C13.6126 27.295 13.6955 27.3779 13.6955 27.5055C13.6955 27.6331 13.6126 27.716 13.4851 27.716ZM13.4851 27.9552C13.5967 27.9552 13.6605 28.0285 13.6605 28.1433V29.3329C13.6605 29.4509 13.5967 29.5211 13.4851 29.5211C13.3766 29.5211 13.3096 29.4509 13.3096 29.3329V28.1433C13.3096 28.0285 13.3766 27.9552 13.4851 27.9552ZM15.1199 29.1798C15.1199 29.2149 15.1103 29.2468 15.0976 29.2723C15.0083 29.4477 14.8265 29.5402 14.5809 29.5402C14.2141 29.5402 13.9941 29.3106 13.9941 28.9247V27.6362C13.9941 27.5182 14.0611 27.4481 14.1695 27.4481C14.2779 27.4481 14.3449 27.5182 14.3449 27.6362V27.9743H14.8743C14.9828 27.9743 15.0497 28.0349 15.0497 28.137C15.0497 28.2358 14.9828 28.2964 14.8743 28.2964H14.3449V28.9343C14.3449 29.1161 14.4406 29.2181 14.5969 29.2181C14.6989 29.2181 14.7755 29.1703 14.8233 29.0937C14.852 29.0491 14.8966 29.0172 14.9572 29.0172C15.0497 29.0172 15.1199 29.0746 15.1199 29.1798ZM17.4877 27.2503C17.5993 27.2503 17.6663 27.3237 17.6663 27.4385V29.3329C17.6663 29.4509 17.5993 29.5211 17.4877 29.5211C17.3825 29.5211 17.3155 29.4509 17.3155 29.3329V29.317H17.3091C17.1911 29.4605 17.0093 29.5402 16.7797 29.5402C16.33 29.5402 16.0334 29.2213 16.0334 28.7397C16.0334 28.255 16.33 27.936 16.7797 27.936C17.0093 27.936 17.1911 28.0158 17.3091 28.1593H17.3155V27.4385C17.3155 27.3237 17.3825 27.2503 17.4877 27.2503ZM16.8499 29.2181C17.1241 29.2181 17.3155 29.0204 17.3155 28.7397C17.3155 28.4559 17.1241 28.2581 16.8499 28.2581C16.5788 28.2581 16.3906 28.4527 16.3906 28.7397C16.3906 29.0236 16.5788 29.2181 16.8499 29.2181ZM18.7903 28.2486C18.567 28.2486 18.3884 28.3793 18.3406 28.5835H19.2304C19.1825 28.3793 19.0135 28.2486 18.7903 28.2486ZM19.4345 29.2755C19.2942 29.4445 19.0741 29.5402 18.8062 29.5402C18.3023 29.5402 17.9706 29.2149 17.9706 28.7397C17.9706 28.2613 18.3023 27.936 18.7903 27.936C19.2336 27.936 19.5716 28.255 19.5716 28.644V28.66C19.5716 28.7844 19.4887 28.8641 19.3643 28.8641H18.3406C18.382 29.0874 18.5606 29.2277 18.8062 29.2277C18.972 29.2277 19.0996 29.1607 19.1762 29.0714C19.2144 29.0268 19.2559 29.0076 19.3069 29.0076C19.409 29.0076 19.4728 29.0714 19.4728 29.1703C19.4728 29.2085 19.46 29.2436 19.4345 29.2755ZM9.25756 31.9552C9.35961 31.9552 9.4234 32.0253 9.4234 32.1274C9.4234 32.1593 9.41702 32.1848 9.39788 32.2231L8.83339 33.384C8.79193 33.4732 8.72495 33.5211 8.63246 33.5211C8.54317 33.5211 8.473 33.4701 8.42835 33.3808L7.8798 32.2518C7.85748 32.2071 7.84472 32.172 7.84472 32.1306C7.84472 32.0285 7.9117 31.9552 8.01694 31.9552C8.10305 31.9552 8.15089 31.9966 8.18597 32.0732L8.63565 33.0491H8.64203L9.08853 32.0732C9.12361 31.9966 9.16826 31.9552 9.25756 31.9552ZM10.9769 31.9552C11.0885 31.9552 11.1555 32.0285 11.1555 32.1433V33.3329C11.1555 33.4509 11.0885 33.5211 10.9769 33.5211C10.8716 33.5211 10.8046 33.4509 10.8046 33.3329V33.317H10.7983C10.6803 33.4605 10.4985 33.5402 10.2688 33.5402C9.81916 33.5402 9.52256 33.2213 9.52256 32.7397C9.52256 32.255 9.81916 31.936 10.2688 31.936C10.4985 31.936 10.6803 32.0158 10.7983 32.1593H10.8046V32.1433C10.8046 32.0285 10.8716 31.9552 10.9769 31.9552ZM10.339 33.2181C10.6133 33.2181 10.8046 33.0204 10.8046 32.7397C10.8046 32.4559 10.6133 32.2581 10.339 32.2581C10.0679 32.2581 9.87976 32.4527 9.87976 32.7397C9.87976 33.0236 10.0679 33.2181 10.339 33.2181ZM12.3815 31.936C12.8024 31.936 13.0289 32.1848 13.0289 32.6472V33.3329C13.0289 33.4509 12.9651 33.5211 12.8535 33.5211C12.745 33.5211 12.6781 33.4509 12.6781 33.3329V32.6855C12.6781 32.408 12.5441 32.2581 12.2922 32.2581C12.0307 32.2581 11.8712 32.4399 11.8712 32.7333V33.3329C11.8712 33.4509 11.8074 33.5211 11.6958 33.5211C11.5873 33.5211 11.5204 33.4509 11.5204 33.3329V32.1433C11.5204 32.0253 11.5873 31.9552 11.6958 31.9552C11.8074 31.9552 11.8712 32.0253 11.8712 32.1433V32.1529H11.8776C11.986 32.0158 12.1582 31.936 12.3815 31.936ZM13.5364 31.716C13.4121 31.716 13.3291 31.6331 13.3291 31.5055C13.3291 31.3779 13.4121 31.295 13.5364 31.295C13.664 31.295 13.7469 31.3779 13.7469 31.5055C13.7469 31.6331 13.664 31.716 13.5364 31.716ZM13.5364 31.9552C13.6481 31.9552 13.7119 32.0285 13.7119 32.1433V33.3329C13.7119 33.4509 13.6481 33.5211 13.5364 33.5211C13.428 33.5211 13.361 33.4509 13.361 33.3329V32.1433C13.361 32.0285 13.428 31.9552 13.5364 31.9552ZM14.2528 31.2503C14.3644 31.2503 14.4282 31.3205 14.4282 31.4385V33.3329C14.4282 33.4509 14.3644 33.5211 14.2528 33.5211C14.1443 33.5211 14.0774 33.4509 14.0774 33.3329V31.4385C14.0774 31.3205 14.1443 31.2503 14.2528 31.2503ZM14.966 31.2503C15.0776 31.2503 15.1414 31.3205 15.1414 31.4385V33.3329C15.1414 33.4509 15.0776 33.5211 14.966 33.5211C14.8576 33.5211 14.7906 33.4509 14.7906 33.3329V31.4385C14.7906 31.3205 14.8576 31.2503 14.966 31.2503ZM16.2628 32.2486C16.0396 32.2486 15.861 32.3793 15.8132 32.5835H16.703C16.6551 32.3793 16.4861 32.2486 16.2628 32.2486ZM16.9071 33.2755C16.7667 33.4445 16.5467 33.5402 16.2788 33.5402C15.7749 33.5402 15.4432 33.2149 15.4432 32.7397C15.4432 32.2613 15.7749 31.936 16.2628 31.936C16.7062 31.936 17.0442 32.255 17.0442 32.644V32.66C17.0442 32.7844 16.9613 32.8641 16.8369 32.8641H15.8132C15.8546 33.0874 16.0332 33.2277 16.2788 33.2277C16.4446 33.2277 16.5722 33.1607 16.6487 33.0714C16.687 33.0268 16.7285 33.0076 16.7795 33.0076C16.8816 33.0076 16.9453 33.0714 16.9453 33.1703C16.9453 33.2085 16.9326 33.2436 16.9071 33.2755Z" fill="black"/>
</svg>
