<svg width="45" height="46" viewBox="0 0 45 46" fill="none" xmlns="http://www.w3.org/2000/svg">
<g clip-path="url(#clip0_1318_3077)">
<path d="M34.4013 0.107422L8.98727 0.320794L7.70703 3.0973V41.9644C7.70703 45.8091 10.4835 45.8091 10.4835 45.8091H34.1892C35.5321 45.8091 36.1762 44.7636 36.483 43.8661C36.6723 43.3113 36.7524 42.7286 36.7497 42.1418C36.7257 37.8477 36.539 5.09233 36.539 3.09597L34.4013 0.107422Z" fill="#FFF2D3" stroke="black" stroke-width="0.72167" stroke-miterlimit="10"/>
<path d="M8.9873 0.320312V40.8357C8.9873 42.4053 9.41805 43.975 10.3716 45.2219C10.5476 45.4526 10.781 45.6526 11.1224 45.8086" fill="#FFF2D3"/>
<path d="M8.9873 0.320312V40.8357C8.9873 42.4054 9.41805 43.975 10.3716 45.2219C10.5476 45.4526 10.781 45.6526 11.1224 45.8086" stroke="black" stroke-width="0.72167" stroke-miterlimit="10"/>
<path d="M34.4012 0V40.5261C34.4012 41.7503 34.1878 43.4586 33.9744 44.1001C33.681 44.9789 33.4863 45.3483 32.4795 45.8084" fill="#FFF2D3"/>
<path d="M34.4012 0V40.5261C34.4012 41.7503 34.1878 43.4586 33.9744 44.1001C33.681 44.9789 33.4863 45.3483 32.4795 45.8084" stroke="black" stroke-width="0.72167" stroke-miterlimit="10"/>
<path opacity="0.84" d="M7.92058 11.8535L9.41552 13.1351C9.41552 13.1351 31.1982 13.9899 34.8295 12.9217C34.8295 12.9217 35.8977 13.1351 36.5378 12.2816V33.8509C36.5378 33.8509 35.2562 34.7057 33.3346 34.9191C31.4129 35.1324 14.3284 35.9873 9.62889 34.7057C9.62889 34.7057 7.92058 34.0656 7.70721 33.6375C7.49383 33.2094 7.92058 11.8548 7.92058 11.8548V11.8535Z" fill="#DA772F" stroke="black" stroke-width="0.72167" stroke-miterlimit="10"/>
<path d="M7.70703 12.2804L9.20197 13.3486C9.20197 13.3486 29.4897 14.6302 34.8293 13.3486C34.8293 13.3486 36.3243 13.3486 36.5376 12.7085C36.751 12.0684 36.5376 9.93198 36.5376 9.93198C36.5376 9.93198 35.4694 10.5721 34.616 10.5721C33.7625 10.5721 11.5517 11.8537 8.9886 10.3587L7.70703 9.50391V12.2804Z" fill="white" stroke="black" stroke-width="0.72167" stroke-miterlimit="10"/>
<path d="M7.70703 35.9328L9.20197 37.001C9.20197 37.001 29.4897 38.2825 34.8293 37.001C34.8293 37.001 36.3243 37.001 36.5376 36.3608C36.751 35.7207 36.5376 33.5843 36.5376 33.5843C36.5376 33.5843 35.4694 34.2244 34.616 34.2244C33.7625 34.2244 11.5517 35.506 8.9886 34.0111L7.70703 33.1562V35.9328Z" fill="white" stroke="black" stroke-width="0.72167" stroke-miterlimit="10"/>
<path d="M7.70703 3.09766L8.9926 3.46172L34.3186 3.41105L36.5376 3.09766" stroke="black" stroke-width="0.72167" stroke-miterlimit="10"/>
<path d="M22.7612 41.2177C25.2381 41.2177 27.246 39.2098 27.246 36.7329C27.246 34.256 25.2381 32.248 22.7612 32.248C20.2843 32.248 18.2764 34.256 18.2764 36.7329C18.2764 39.2098 20.2843 41.2177 22.7612 41.2177Z" fill="white" stroke="#00D0EE" stroke-width="0.72167" stroke-miterlimit="10"/>
<path d="M23.4943 35.6196C23.4943 35.6196 23.1289 35.5916 22.7635 35.6583C22.2794 35.7463 22.0567 35.9277 21.6233 36.1637L21.0005 36.2984C20.9312 36.3051 20.4231 36.3931 20.2497 36.4304C19.6843 36.5518 19.0269 36.8425 19.1015 37.5373C19.1455 37.94 19.3776 38.2241 19.7737 38.3588C20.091 38.4668 20.5165 38.4761 20.9379 38.3855C21.0526 38.3601 21.2539 38.3028 21.3539 38.2654L24.8306 37.5133L24.8412 37.5093C24.8573 37.5066 24.9599 37.484 24.9799 37.48C25.2667 37.4186 25.9735 37.2359 26.3669 36.8745C26.6109 36.6505 26.6936 36.3931 26.6109 36.109C26.4495 35.5503 25.9441 35.3462 25.148 35.5183C24.9253 35.5663 24.2478 35.693 24.1358 35.7316L23.493 35.6209L23.4943 35.6196Z" fill="#A67C52" stroke="black" stroke-width="0.72167" stroke-miterlimit="10"/>
<path d="M21.6449 36.1903C21.6743 36.1836 21.7063 36.2183 21.7263 36.2357C21.7557 36.2597 21.7824 36.2851 21.8105 36.3105C21.8639 36.3612 21.9146 36.416 21.9614 36.472C21.9827 36.4987 22.0215 36.46 21.9988 36.4346C21.9467 36.3719 21.8893 36.3118 21.8292 36.2557C21.7998 36.2277 21.7691 36.201 21.737 36.1756C21.705 36.1502 21.6716 36.1289 21.6302 36.1395C21.5968 36.1475 21.6115 36.1983 21.6449 36.1916V36.1903Z" fill="black"/>
<path d="M24.131 35.7713C24.2378 35.8474 24.3246 35.9488 24.3847 36.065C24.4007 36.0957 24.4461 36.069 24.4314 36.0383C24.3673 35.9141 24.2725 35.806 24.159 35.7245C24.147 35.7165 24.1296 35.7218 24.123 35.7339C24.1149 35.7472 24.1203 35.7619 24.1323 35.7699L24.131 35.7713Z" fill="black"/>
<path d="M22.8087 35.7066C22.9021 35.8201 22.9809 35.9456 23.045 36.0778C23.0597 36.1085 23.1064 36.0818 23.0918 36.0511C23.0263 35.9135 22.9435 35.7867 22.8461 35.6692C22.8247 35.6425 22.786 35.6812 22.8087 35.7066Z" fill="black"/>
</g>
<path d="M15.2013 21.9554C14.8795 21.9554 14.6839 22.1573 14.6839 22.517V22.7883H15.7376C15.9521 22.7883 16.0783 22.9082 16.0783 23.1101C16.0783 23.3057 15.9521 23.4256 15.7376 23.4256H14.6839V25.4761C14.6839 25.7096 14.5577 25.8484 14.3369 25.8484C14.1224 25.8484 13.9899 25.7096 13.9899 25.4761V22.5359C13.9899 21.7725 14.4252 21.3182 15.1634 21.3182C15.6493 21.3182 16.0089 21.5012 16.1982 21.8293C16.2297 21.8923 16.2487 21.9554 16.2487 22.0248C16.2487 22.2204 16.1225 22.3466 15.9332 22.3466C15.8196 22.3466 15.725 22.2962 15.6682 22.2141C15.5546 22.0438 15.4158 21.9554 15.2013 21.9554ZM19.0516 22.7504C19.2724 22.7504 19.4049 22.8956 19.4049 23.1227V25.4761C19.4049 25.7096 19.2724 25.8484 19.0516 25.8484C18.8434 25.8484 18.7109 25.7096 18.7109 25.4761V25.4446H18.6982C18.4648 25.7285 18.1051 25.8863 17.6509 25.8863C16.7612 25.8863 16.1744 25.2553 16.1744 24.3026C16.1744 23.3435 16.7612 22.7126 17.6509 22.7126C18.1051 22.7126 18.4648 22.8703 18.6982 23.1542H18.7109V23.1227C18.7109 22.8956 18.8434 22.7504 19.0516 22.7504ZM17.7897 25.249C18.3323 25.249 18.7109 24.8578 18.7109 24.3026C18.7109 23.741 18.3323 23.3498 17.7897 23.3498C17.2534 23.3498 16.8811 23.7347 16.8811 24.3026C16.8811 24.8641 17.2534 25.249 17.7897 25.249ZM21.7799 22.7315C21.9881 22.7315 22.127 22.864 22.127 23.0785C22.127 23.2931 21.9881 23.4256 21.7799 23.4256C21.1742 23.4256 20.8209 23.7473 20.8209 24.4856V25.4761C20.8209 25.7096 20.6947 25.8484 20.4739 25.8484C20.2593 25.8484 20.1268 25.7096 20.1268 25.4761V23.1227C20.1268 22.8956 20.2593 22.7504 20.4739 22.7504C20.6947 22.7504 20.8209 22.8956 20.8209 23.1227V23.2363H20.8335C21.0228 22.9082 21.3446 22.7315 21.7799 22.7315ZM22.8892 22.2772C22.6431 22.2772 22.4791 22.1132 22.4791 21.8608C22.4791 21.6084 22.6431 21.4444 22.8892 21.4444C23.1416 21.4444 23.3056 21.6084 23.3056 21.8608C23.3056 22.1132 23.1416 22.2772 22.8892 22.2772ZM22.8892 22.7504C23.1101 22.7504 23.2362 22.8956 23.2362 23.1227V25.4761C23.2362 25.7096 23.1101 25.8484 22.8892 25.8484C22.6747 25.8484 22.5422 25.7096 22.5422 25.4761V23.1227C22.5422 22.8956 22.6747 22.7504 22.8892 22.7504ZM25.6629 22.7126C26.4958 22.7126 26.9438 23.2047 26.9438 24.1196V25.4761C26.9438 25.7096 26.8176 25.8484 26.5967 25.8484C26.3822 25.8484 26.2497 25.7096 26.2497 25.4761V24.1953C26.2497 23.6464 25.9847 23.3498 25.4863 23.3498C24.9689 23.3498 24.6534 23.7095 24.6534 24.29V25.4761C24.6534 25.7096 24.5272 25.8484 24.3064 25.8484C24.0919 25.8484 23.9594 25.7096 23.9594 25.4761V23.1227C23.9594 22.8892 24.0919 22.7504 24.3064 22.7504C24.5272 22.7504 24.6534 22.8892 24.6534 23.1227V23.1416H24.666C24.8806 22.8703 25.2213 22.7126 25.6629 22.7126ZM29.1025 23.3309C28.6609 23.3309 28.3076 23.5896 28.2129 23.9934H29.9733C29.8786 23.5896 29.5442 23.3309 29.1025 23.3309ZM30.3771 25.3626C30.0994 25.697 29.6641 25.8863 29.1341 25.8863C28.1372 25.8863 27.481 25.2427 27.481 24.3026C27.481 23.3562 28.1372 22.7126 29.1025 22.7126C29.9796 22.7126 30.6484 23.3435 30.6484 24.1133V24.1448C30.6484 24.3909 30.4843 24.5486 30.2383 24.5486H28.2129C28.2949 24.9903 28.6483 25.2679 29.1341 25.2679C29.4622 25.2679 29.7146 25.1354 29.866 24.9588C29.9417 24.8704 30.0237 24.8326 30.1247 24.8326C30.3266 24.8326 30.4528 24.9588 30.4528 25.1544C30.4528 25.2301 30.4275 25.2995 30.3771 25.3626Z" fill="white"/>
<defs>
<clipPath id="clip0_1318_3077">
<rect width="29.3094" height="45.9124" fill="white" transform="translate(7.54297)"/>
</clipPath>
</defs>
</svg>
