<svg width="101" height="41" viewBox="0 0 101 41" fill="none" xmlns="http://www.w3.org/2000/svg">
<path d="M13.0617 13.2782C20.3331 12.1742 55.5096 15.9303 57.0042 16.0909L57.4063 16.1339L58.2294 21.5555L57.8631 21.7176C56.4225 22.355 22.5137 37.3482 16.8467 38.2085C9.97444 39.2519 3.53306 34.5086 2.48952 27.6352C1.44599 20.7618 6.18832 14.3217 13.0617 13.2782ZM56.4908 17.0907C52.4892 16.6688 19.9489 13.2933 13.2191 14.315C6.91786 15.2717 2.56968 21.1765 3.52653 27.4789C4.48338 33.7813 10.3884 38.1306 16.6896 37.174C21.9122 36.3811 53.3084 22.5826 57.0726 20.9226L56.491 17.0918L56.4908 17.0907Z" fill="#606060" stroke="black" stroke-width="0.811368"/>
<path d="M13.4886 16.0925C20.7442 14.9909 55.5886 16.6516 57.0684 16.7219L57.4972 16.7424L58.1625 21.1249L57.7629 21.2735C56.3078 21.8148 22.0689 34.5354 16.4178 35.3933C9.54552 36.4367 3.29588 32.9564 2.48803 27.6354C1.68019 22.3144 6.61427 17.1373 13.4877 16.0938L13.4886 16.0925ZM56.5904 17.7488C52.4909 17.558 20.3734 16.1068 13.6459 17.1282C7.3446 18.0849 2.80484 22.7278 3.52582 27.4767C4.24681 32.2255 9.96022 35.313 16.2615 34.3563C21.4852 33.5633 53.0651 21.8965 56.9988 20.4387L56.5902 17.7477L56.5904 17.7488Z" fill="#606060" stroke="black" stroke-width="0.811368"/>
<path d="M14.0316 19.6667C21.2668 18.5682 55.6904 17.571 57.152 17.5295L57.6149 17.5159L58.0807 20.5835L57.6371 20.7098C56.1644 21.1277 21.5064 30.9657 15.8768 31.8204C8.88694 32.8816 3.0069 31.0432 2.48951 27.6354C1.97212 24.2275 7.04174 20.7279 14.0316 19.6667ZM56.7183 18.589C52.5013 18.7145 20.913 19.6815 14.1888 20.7024C7.99385 21.6429 3.1116 24.7462 3.52634 27.478C3.94107 30.2097 9.52569 31.725 15.7195 30.7847C20.9455 29.9912 52.7529 21.0037 56.9063 19.8271L56.7183 18.589Z" fill="#606060" stroke="black" stroke-width="0.811368"/>
<path d="M14.5736 23.2351C21.7884 22.1397 56.88 18.3724 57.2329 18.3351L57.7316 18.2825L57.9988 20.0429L57.5082 20.1406C57.1433 20.2133 20.9444 27.3991 15.3351 28.2508C14.0597 28.4444 2.85984 30.0731 2.48973 27.6353C2.11963 25.1976 13.2983 23.4298 14.5738 23.2362L14.5736 23.2351ZM54.323 19.7022C45.6069 20.6461 20.668 23.3694 14.7297 24.2709C7.68558 25.3404 4.05577 26.8493 3.56597 27.4708C4.21816 27.9189 8.13128 28.2837 15.1765 27.2141C19.8101 26.5106 45.4929 21.45 54.323 19.7022Z" fill="#606060" stroke="black" stroke-width="0.811368"/>
<path d="M89.2121 16.8179L96.0493 15.7798C97.5373 15.5539 98.5596 14.1656 98.3337 12.6777C98.1078 11.1897 96.7195 10.1674 95.2315 10.3933L88.3954 11.4311C86.9075 11.6571 85.8852 13.0454 86.1111 14.5333C86.337 16.0213 87.7264 17.0434 89.2132 16.8177L89.2121 16.8179ZM88.646 13.0889L95.4832 12.0509C96.0553 11.964 96.5894 12.3583 96.6761 12.9293C96.7628 13.5003 96.3687 14.0356 95.7977 14.1223L88.9616 15.1601C88.3906 15.2468 87.8553 14.8527 87.7686 14.2817C87.682 13.7107 88.0761 13.1754 88.6471 13.0887L88.646 13.0889Z" fill="#606060" stroke="black" stroke-width="0.811368"/>
<path d="M57.3985 16.9143C57.1909 15.5473 58.1392 14.2582 59.5062 14.0506L89.0644 9.56303C90.4325 9.35532 91.7207 10.3049 91.9283 11.6719L92.5154 15.5388C92.7229 16.9058 91.7746 18.195 90.4065 18.4027L60.8483 22.8903C59.4813 23.0978 58.1933 22.1494 57.9856 20.7812L57.3985 16.9143Z" fill="#0071BC" stroke="black" stroke-width="0.811368"/>
<path d="M86.9029 14.4131C86.7931 13.6895 87.2918 13.0123 88.0154 12.9024C88.739 12.7926 89.4174 13.2911 89.5273 14.0147C89.6371 14.7383 89.1397 15.4165 88.4138 15.5267C87.6879 15.6369 87.013 15.1379 86.9029 14.4131Z" fill="#242423" stroke="black" stroke-width="0.811368"/>
<path d="M60.3854 18.4385C60.2755 17.7149 60.7742 17.0377 61.4978 16.9278C62.2215 16.818 62.8998 17.3165 63.0097 18.0401C63.1195 18.7637 62.621 19.4421 61.8963 19.5521C61.1715 19.6622 60.4954 19.1633 60.3854 18.4385Z" fill="#242423" stroke="black" stroke-width="0.811368"/>
</svg>
