<svg width="1711" height="848" viewBox="0 0 1711 848" fill="none" xmlns="http://www.w3.org/2000/svg">
<rect x="477.68" y="0.965295" width="244.927" height="280.188" fill="#FFD833" stroke="white" stroke-width="1.93059"/>
<rect x="724.536" y="0.965295" width="244.927" height="280.188" fill="#FFD833" stroke="white" stroke-width="1.93059"/>
<rect x="-16.0347" y="283.083" width="244.927" height="280.188" fill="#FFD833" stroke="white" stroke-width="1.93059"/>
<rect x="230.823" y="283.083" width="244.927" height="280.188" fill="#FFD833" stroke="white" stroke-width="1.93059"/>
<rect x="477.68" y="283.083" width="244.927" height="280.188" fill="#FFD833" stroke="white" stroke-width="1.93059"/>
<rect x="724.536" y="283.083" width="244.927" height="280.188" fill="#FFD833" stroke="white" stroke-width="1.93059"/>
<rect x="-16.0347" y="564.727" width="244.927" height="280.188" fill="#FFD833" stroke="white" stroke-width="1.93059"/>
<rect x="230.823" y="564.727" width="244.927" height="280.188" fill="#FFD833" stroke="white" stroke-width="1.93059"/>
<rect x="477.68" y="564.727" width="244.927" height="280.188" fill="#FFD833" stroke="white" stroke-width="1.93059"/>
<rect x="724.536" y="564.727" width="244.927" height="280.188" fill="#FFD833" stroke="white" stroke-width="1.93059"/>
<rect x="-16.0347" y="846.846" width="244.927" height="280.188" fill="#FFD833" stroke="white" stroke-width="1.93059"/>
<rect x="230.823" y="846.846" width="244.927" height="280.188" fill="#FFD833" stroke="white" stroke-width="1.93059"/>
<rect x="477.68" y="846.846" width="244.927" height="280.188" fill="#FFD833" stroke="white" stroke-width="1.93059"/>
<rect x="724.536" y="846.846" width="244.927" height="280.188" fill="#FFD833" stroke="white" stroke-width="1.93059"/>
<rect x="971.393" y="0.965295" width="244.927" height="280.188" fill="#FFD833" stroke="white" stroke-width="1.93059"/>
<rect x="1218.25" y="0.965295" width="244.927" height="280.188" fill="#FFD833" stroke="white" stroke-width="1.93059"/>
<rect x="1465.11" y="0.965295" width="244.927" height="280.188" fill="#FFD833" stroke="white" stroke-width="1.93059"/>
<rect x="971.393" y="283.083" width="244.927" height="280.188" fill="#FFD833" stroke="white" stroke-width="1.93059"/>
<rect x="1218.25" y="283.083" width="244.927" height="280.188" fill="#FFD833" stroke="white" stroke-width="1.93059"/>
<rect x="1465.11" y="283.083" width="244.927" height="280.188" fill="#FFD833" stroke="white" stroke-width="1.93059"/>
<rect x="971.393" y="564.727" width="244.927" height="280.188" fill="#FFD833" stroke="white" stroke-width="1.93059"/>
<rect x="1218.25" y="564.727" width="244.927" height="280.188" fill="#FFD833" stroke="white" stroke-width="1.93059"/>
<rect x="1465.11" y="564.727" width="244.927" height="280.188" fill="#FFD833" stroke="white" stroke-width="1.93059"/>
<rect x="971.393" y="846.846" width="244.927" height="280.188" fill="#FFD833" stroke="white" stroke-width="1.93059"/>
<rect x="1218.25" y="846.846" width="244.927" height="280.188" fill="#FFD833" stroke="white" stroke-width="1.93059"/>
<rect x="1465.11" y="846.846" width="244.927" height="280.188" fill="#FFD600" stroke="white" stroke-width="1.93059"/>
<rect x="-16.0347" y="0.965295" width="244.927" height="280.188" fill="#FFD833" stroke="white" stroke-width="1.93059"/>
<rect x="230.823" y="0.965295" width="244.927" height="280.188" fill="#FFD833" stroke="white" stroke-width="1.93059"/>
</svg>
