<svg width="710" height="1117" viewBox="0 0 710 1117" fill="none" xmlns="http://www.w3.org/2000/svg">
<path d="M708 0H1V1117H708V0Z" fill="#C9E4F7"/>
<path d="M403.279 1011.23C403.279 963.64 433.089 927.77 466.619 927.77C470.479 927.77 474.409 928.25 478.299 929.21C478.809 929.35 479.23 929.41 479.5 929.43C479.7 929.45 479.869 929.46 479.979 929.46H480.179C482.739 929.46 485.369 928.06 486.649 925.42C508.129 881.69 544.319 856.54 582.899 856.54C621.479 856.54 657.689 881.69 679.159 925.45L679.179 925.49C683.319 933.42 704.349 928.08 708.019 927.88C708.019 927.79 708.069 1032.73 708.069 1032.73L405.449 1032.71C404.029 1025.72 403.299 1018.52 403.299 1011.25L403.279 1011.23Z" fill="#F7F4E9" stroke="black" stroke-width="3"/>
<path d="M304.21 230.999L1.58984 231.019C1.58984 231.019 1.63989 126.079 1.63989 126.169C5.30989 126.379 26.34 131.709 30.48 123.779L30.5 123.739C51.96 79.9791 88.17 54.8291 126.76 54.8291C165.35 54.8291 201.53 79.9691 223.01 123.709C224.29 126.359 226.92 127.749 229.48 127.749H229.68C229.79 127.749 229.96 127.749 230.16 127.719C230.42 127.699 230.85 127.639 231.36 127.499C235.25 126.549 239.17 126.059 243.04 126.059C276.56 126.059 306.38 161.919 306.38 209.519C306.38 216.789 305.66 223.989 304.23 230.979L304.21 230.999Z" fill="#F7F4E9" stroke="black" stroke-width="3"/>
</svg>
