<svg width="193" height="72" viewBox="0 0 193 72" fill="none" xmlns="http://www.w3.org/2000/svg">
<g clip-path="url(#clip0_848_1237)">
<path d="M5.71 35.3703C8.19 32.9204 10.72 31.1804 13.31 30.1504C15.9 29.1204 18.43 28.6104 20.88 28.6104C23.52 28.6104 26 29.0404 28.31 29.9104C30.62 30.7804 32.59 31.8304 34.23 33.0504C35.87 34.2804 37.05 35.4603 37.77 36.6003C39.04 38.6503 39.97 40.7304 40.56 42.8204C41.15 44.9104 41.45 47.0103 41.45 49.1003C41.45 51.6003 41.1 54.0604 40.39 56.5004C39.68 58.9404 38.73 61.3004 37.55 63.6104C36.13 66.1904 33.88 68.2004 30.79 69.6204C27.7 71.0504 24.37 71.7604 20.79 71.7604C18.44 71.7604 16.13 71.4304 13.85 70.7604C11.58 70.0904 9.51 69.0503 7.65 67.6303C5.11 65.6403 3.2 63.1204 1.92 60.0604C0.64 57.0004 0 53.8204 0 50.5204C0 47.6904 0.47 44.9403 1.41 42.3004C2.35 39.6603 3.79 37.3403 5.71 35.3503V35.3703ZM15.58 45.6604C14.16 47.1604 13.52 48.9804 13.64 51.1003C13.77 53.2304 14.62 54.9403 16.21 56.2304C17.92 57.3703 19.82 57.8004 21.91 57.5004C23.99 57.2004 25.47 56.3404 26.34 54.9004C27.1 53.5004 27.54 52.0504 27.64 50.5404C27.75 49.0304 27.33 47.5404 26.4 46.0804C26 45.4204 25.22 44.8104 24.07 44.2204C22.92 43.6304 21.58 43.3904 20.07 43.4704C18.56 43.5504 17.06 44.2904 15.58 45.6604Z" fill="#2721A2"/>
<path d="M58.49 51.9702C58.21 51.9702 58.07 52.3202 58.06 53.0202C58.05 53.7202 58.11 54.6302 58.23 55.7502C58.35 56.8702 58.5 58.0902 58.66 59.4002C58.82 60.7102 58.95 62.0002 59.06 63.2702C59.17 64.5402 59.19 65.6802 59.12 66.6802C59.05 67.6802 58.84 68.4302 58.49 68.9202C57.88 69.7002 56.87 70.3302 55.47 70.7902C54.07 71.2502 52.64 71.4902 51.15 71.4902C49.9 71.4902 48.78 71.2902 47.79 70.8902C46.8 70.4902 46.13 69.8302 45.79 68.9202C45.24 67.1402 44.81 64.3902 44.5 60.6502C44.19 56.9102 44.04 52.9802 44.04 48.8302C44.04 46.3102 44.1 43.8702 44.23 41.5002C44.36 39.1302 44.55 37.0202 44.8 35.1702C45.05 33.3202 45.38 31.8802 45.78 30.8402C46.22 29.8002 46.95 29.0602 47.97 28.6202C48.99 28.1802 50.15 27.9502 51.46 27.9502C53.11 27.9502 54.81 28.2302 56.55 28.7902C58.3 29.3502 59.78 30.0302 61.01 30.8402C61.54 31.2002 62.07 31.7102 62.6 32.3802C63.13 33.0502 63.65 33.8102 64.15 34.6802C64.65 35.5502 65.15 36.4702 65.64 37.4402C66.13 38.4102 66.6 39.3902 67.05 40.3602C67.51 41.3302 67.93 42.2602 68.34 43.1502C68.75 44.0402 69.12 44.8302 69.47 45.5102C69.82 46.2002 70.14 46.7402 70.42 47.1402C70.71 47.5402 70.95 47.7402 71.17 47.7402C71.59 47.7402 71.74 47.0102 71.61 45.5502C71.48 44.0902 71.28 42.3602 71.01 40.3402C70.73 38.3302 70.57 36.4302 70.52 34.6402C70.47 32.8502 70.68 31.5802 71.17 30.8202C71.8 30.0402 72.82 29.4102 74.22 28.9302C75.62 28.4502 77.05 28.2202 78.54 28.2202C79.77 28.2202 80.88 28.4302 81.87 28.8402C82.86 29.2502 83.53 29.9102 83.87 30.8202C84.44 32.6002 84.87 35.3502 85.17 39.0902C85.47 42.8302 85.61 46.7702 85.61 50.9102C85.61 53.4302 85.55 55.8702 85.44 58.2402C85.32 60.6102 85.13 62.7202 84.87 64.5702C84.61 66.4202 84.27 67.8702 83.87 68.9002C83.45 69.9202 82.73 70.6502 81.71 71.0902C80.69 71.5302 79.53 71.7602 78.22 71.7602C76.57 71.7602 74.87 71.4902 73.11 70.9302C71.35 70.3802 69.86 69.7002 68.64 68.9002C67.58 68.1202 66.54 66.8402 65.51 65.0602C64.48 63.2802 63.52 61.3902 62.61 59.3802C61.7 57.3702 60.89 55.6302 60.18 54.1602C59.47 52.6902 58.91 51.9502 58.48 51.9502L58.49 51.9702Z" fill="#2721A2"/>
<path d="M103.18 31.9497C103.71 33.5797 104.11 36.0997 104.39 39.4997C104.66 42.9097 104.8 46.5197 104.8 50.3497C104.8 54.1797 104.66 57.8197 104.39 61.2197C104.11 64.6197 103.71 67.1297 103.18 68.7597C102.8 69.7797 102 70.5297 100.78 71.0297C99.5604 71.5297 98.2504 71.7797 96.8304 71.7797C95.4104 71.7797 94.0904 71.5297 92.8804 71.0297C91.6604 70.5297 90.8604 69.7797 90.4804 68.7597C90.1404 67.6997 89.8504 66.2297 89.6104 64.3297C89.3704 62.4297 89.1904 60.2697 89.0704 57.8397C88.9504 55.4097 88.9004 52.9097 88.9004 50.3497C88.9004 47.7897 88.9604 45.3197 89.0704 42.8897C89.1904 40.4597 89.3704 38.2897 89.6104 36.3797C89.8504 34.4697 90.1404 32.9897 90.4804 31.9397C90.8604 30.9497 91.6604 30.1897 92.8804 29.6897C94.1004 29.1797 95.4104 28.9297 96.8304 28.9297C98.2504 28.9297 99.5604 29.1797 100.78 29.6897C102 30.1997 102.8 30.9497 103.18 31.9397V31.9497Z" fill="#2721A2"/>
<path d="M112.71 35.0001C114.87 32.8601 117.26 31.6601 119.74 30.0201C121.83 28.6301 122.18 25.8901 123.12 23.7401C123.26 23.4201 123.68 22.7901 123.89 23.3501C123.96 23.5301 123.93 23.4701 123.96 23.6401C124.09 24.3001 123.99 25.7001 124.02 26.3701C124.15 27.1401 126.04 21.9701 127.03 20.1301C127.21 19.8001 127.65 19.3401 127.87 19.5901C128.02 19.7501 127.83 22.9801 128.23 24.4001C128.25 24.4601 128.32 24.4701 128.37 24.4201C129.12 23.5201 130.59 22.8701 131.61 22.6501C131.8 22.6101 131.79 22.7201 131.72 22.8801C131.6 23.1701 131.47 23.7301 131.41 24.2501C131.34 24.8501 131.73 25.4701 132.06 25.8801C133.27 27.4101 135.33 28.9401 135.85 29.2601C136.27 29.5301 139.28 31.4701 141.23 32.6901C142.97 33.7801 144.05 35.1001 144.77 36.2401C146.04 38.2901 146.97 40.3701 147.56 42.4601C148.15 44.5501 148.45 46.6501 148.45 48.7401C148.45 51.2401 148.1 53.7001 147.39 56.1401C146.68 58.5801 145.73 60.9401 144.55 63.2501C143.13 65.8301 140.88 67.8401 137.79 69.2601C134.7 70.6901 131.37 71.4001 127.79 71.4001C125.44 71.4001 123.13 71.0701 120.86 70.4001C118.59 69.7301 116.52 68.6901 114.65 67.2701C112.11 65.2801 110.2 62.7601 108.92 59.7001C107.64 56.6401 107 53.4601 107 50.1601C107 47.3301 107.47 44.5801 108.41 41.9401C109.35 39.3001 110.79 36.9801 112.71 34.9901V35.0001ZM122.58 45.2801C121.16 46.7801 120.52 48.6001 120.64 50.7201C120.77 52.8501 121.62 54.5601 123.21 55.8501C124.92 56.9901 126.82 57.4201 128.91 57.1201C130.99 56.8201 132.47 55.9601 133.34 54.5201C134.1 53.1201 134.54 51.6701 134.64 50.1601C134.75 48.6501 134.33 47.1601 133.4 45.7001C133 45.0401 132.22 44.4301 131.07 43.8401C129.92 43.2501 128.58 43.0101 127.07 43.0901C125.56 43.1701 124.06 43.9101 122.58 45.2801Z" fill="#2721A2"/>
<path d="M165.67 51.9702C165.39 51.9702 165.25 52.3202 165.24 53.0202C165.23 53.7202 165.29 54.6302 165.41 55.7502C165.53 56.8702 165.68 58.0902 165.84 59.4002C166 60.7102 166.13 62.0002 166.24 63.2702C166.35 64.5402 166.37 65.6802 166.3 66.6802C166.23 67.6802 166.02 68.4302 165.67 68.9202C165.06 69.7002 164.05 70.3302 162.66 70.7902C161.27 71.2502 159.82 71.4902 158.34 71.4902C157.09 71.4902 155.97 71.2902 154.98 70.8902C153.98 70.4902 153.32 69.8302 152.98 68.9202C152.43 67.1402 152 64.3902 151.69 60.6502C151.38 56.9102 151.23 52.9802 151.23 48.8302C151.23 46.3102 151.29 43.8702 151.42 41.5002C151.55 39.1302 151.74 37.0202 151.99 35.1702C152.24 33.3202 152.57 31.8802 152.97 30.8402C153.41 29.8002 154.14 29.0602 155.16 28.6202C156.18 28.1802 157.34 27.9502 158.65 27.9502C160.3 27.9502 162 28.2302 163.74 28.7902C165.49 29.3502 166.97 30.0302 168.2 30.8402C168.73 31.2002 169.26 31.7102 169.79 32.3802C170.32 33.0502 170.84 33.8102 171.35 34.6802C171.86 35.5502 172.35 36.4702 172.84 37.4402C173.33 38.4102 173.8 39.3902 174.25 40.3602C174.7 41.3302 175.13 42.2602 175.54 43.1502C175.94 44.0402 176.32 44.8302 176.67 45.5102C177.02 46.2002 177.34 46.7402 177.62 47.1402C177.91 47.5402 178.15 47.7402 178.37 47.7402C178.79 47.7402 178.94 47.0102 178.81 45.5502C178.68 44.0902 178.48 42.3602 178.21 40.3402C177.93 38.3302 177.77 36.4302 177.72 34.6402C177.67 32.8502 177.88 31.5802 178.37 30.8202C179 30.0402 180.02 29.4102 181.42 28.9302C182.82 28.4502 184.25 28.2202 185.74 28.2202C186.97 28.2202 188.08 28.4302 189.07 28.8402C190.06 29.2502 190.73 29.9102 191.07 30.8202C191.64 32.6002 192.07 35.3502 192.37 39.0902C192.67 42.8302 192.81 46.7702 192.81 50.9102C192.81 53.4302 192.75 55.8702 192.64 58.2402C192.52 60.6102 192.33 62.7202 192.07 64.5702C191.81 66.4202 191.47 67.8702 191.07 68.9002C190.65 69.9202 189.93 70.6502 188.91 71.0902C187.89 71.5302 186.73 71.7602 185.42 71.7602C183.77 71.7602 182.07 71.4902 180.31 70.9302C178.55 70.3802 177.06 69.7002 175.83 68.9002C174.77 68.1202 173.73 66.8402 172.7 65.0602C171.67 63.2802 170.71 61.3902 169.8 59.3802C168.89 57.3702 168.08 55.6302 167.37 54.1602C166.66 52.6902 166.09 51.9502 165.67 51.9502V51.9702Z" fill="#2721A2"/>
<path d="M5.86023 22.8902C5.61023 22.1402 5.35023 21.0102 5.06023 19.5102C4.77023 18.0102 4.52023 16.3302 4.31023 14.4602C4.10023 12.5902 3.99023 10.7802 3.99023 9.02024C3.99023 7.26023 4.13023 5.81023 4.41023 4.50023C4.69023 3.19023 5.17023 2.29023 5.85023 1.79023C6.53023 1.34023 7.59023 0.980234 9.02023 0.680234C10.4502 0.380234 12.0502 0.240234 13.7902 0.240234C15.2902 0.240234 16.8002 0.380234 18.3302 0.660234C19.8602 0.940234 21.2602 1.41023 22.5402 2.07023C23.8202 2.73023 24.8502 3.61023 25.6402 4.72023C26.4302 5.83023 26.8602 7.20023 26.9302 8.82023V8.98023C26.9302 10.0902 26.6702 11.0402 26.1602 11.8102C25.6502 12.5802 24.9702 13.2302 24.1402 13.7302C23.3102 14.2302 22.3902 14.6402 21.4002 14.9302C20.4102 15.2202 19.4002 15.4402 18.4002 15.5802C17.4002 15.7202 16.4802 15.8102 15.6502 15.8402C14.8202 15.8702 13.8902 15.8802 12.8702 15.8402C13.0102 16.6502 13.1202 17.3602 13.2002 17.9802C13.2802 18.6002 13.3302 19.2302 13.3702 19.9002C13.4102 20.5702 13.3902 21.1602 13.3202 21.7002C13.2502 22.2402 13.1002 22.6302 12.8802 22.8802C12.6502 23.1002 12.3002 23.3102 11.8302 23.5102C11.3602 23.7102 10.8502 23.8702 10.2702 23.9902C9.69023 24.1102 9.12023 24.1702 8.56023 24.1702C7.92023 24.1702 7.34023 24.0702 6.85023 23.8702C6.36023 23.6702 6.02023 23.3402 5.86023 22.8702V22.8902ZM13.7102 6.17023C13.5202 6.25023 13.4202 6.50023 13.4102 6.93023C13.4002 7.36023 13.4502 7.79023 13.5802 8.24023C13.7102 8.69023 13.8702 8.99023 14.0802 9.13023C14.2602 9.21023 14.5202 9.27024 14.8702 9.31024C15.2202 9.35023 15.5902 9.34023 15.9902 9.29023C16.3902 9.24023 16.7302 9.13023 17.0202 8.96023C17.3102 8.79023 17.4802 8.53023 17.5102 8.20023C17.5302 7.95023 17.4702 7.73023 17.3202 7.52023C17.1702 7.31023 16.9702 7.13023 16.7102 6.98023C16.4502 6.83023 16.1802 6.69023 15.8802 6.58023C15.5802 6.47023 15.2802 6.38023 14.9802 6.31023C14.6802 6.24023 14.4302 6.20023 14.2002 6.18023C13.9702 6.16023 13.8102 6.17023 13.7202 6.18023L13.7102 6.17023Z" fill="#2721A2"/>
<path d="M37.0606 15.3495C37.7206 15.3895 38.7706 15.3195 40.2206 15.1695C41.6706 15.0195 43.1106 14.9095 44.5506 14.8695C45.9906 14.8295 47.0306 14.9895 47.6806 15.3495C48.1506 15.6795 48.5106 16.2095 48.7806 16.9295C49.0506 17.6495 49.1806 18.4095 49.1806 19.1995C49.1806 19.9095 49.0606 20.5695 48.8206 21.1595C48.5806 21.7495 48.2006 22.1595 47.6906 22.3795C47.0806 22.6295 46.1806 22.8895 44.9806 23.1595C43.7806 23.4295 42.4406 23.6795 40.9506 23.8795C39.4606 24.0795 37.9906 24.1895 36.5406 24.1895C35.0906 24.1895 33.8506 24.0595 32.6906 23.7895C31.5306 23.5195 30.6506 23.0495 30.0406 22.3795C29.3106 21.4695 28.7706 20.0595 28.4006 18.1595C28.0306 16.2595 27.8506 14.2495 27.8506 12.1095C27.8506 9.96953 28.0306 7.93953 28.4006 6.04953C28.7706 4.15953 29.3206 2.74953 30.0406 1.84953C30.6506 1.17953 31.5406 0.709531 32.7006 0.429531C33.8606 0.149531 35.1406 0.0195312 36.5506 0.0195312C37.9606 0.0195312 39.4606 0.119531 40.9406 0.329531C42.4206 0.539531 43.7706 0.779531 44.9706 1.05953C46.1706 1.33953 47.0706 1.59953 47.6806 1.84953C48.2006 2.06953 48.5706 2.47953 48.8106 3.06953C49.0506 3.65953 49.1706 4.30953 49.1706 5.00953C49.1706 5.79953 49.0406 6.54953 48.7706 7.28953C48.5006 8.02953 48.1406 8.54953 47.6706 8.87953C47.0306 9.23953 45.9806 9.39953 44.5406 9.34953C43.1006 9.29953 41.6506 9.19953 40.2106 9.04953C38.7706 8.89953 37.7106 8.83953 37.0506 8.86953C36.9306 8.88953 36.8506 8.98953 36.8106 9.15953C36.7706 9.32953 36.7706 9.49953 36.8106 9.67953C36.8506 9.85953 36.9306 9.95953 37.0506 9.99953C37.4806 10.0495 38.1806 10.0195 39.1406 9.91953C40.1006 9.81953 41.0606 9.74953 42.0106 9.71953C42.9606 9.68953 43.6506 9.77953 44.0806 9.99953C44.4806 10.2595 44.7406 10.6695 44.8706 11.2495C45.0006 11.8295 45.0006 12.3995 44.8706 12.9695C44.7406 13.5395 44.4806 13.9595 44.0806 14.2195C43.6606 14.4395 42.9706 14.5295 42.0106 14.4895C41.0506 14.4495 40.1006 14.3795 39.1406 14.2895C38.1806 14.1995 37.4806 14.1695 37.0506 14.2195C36.9306 14.2595 36.8506 14.3595 36.8106 14.5295C36.7706 14.6995 36.7706 14.8695 36.8106 15.0395C36.8506 15.2095 36.9306 15.3095 37.0506 15.3495H37.0606Z" fill="#2721A2"/>
<path d="M58.3805 7.91C58.1105 7.41 57.6605 7.16 57.0305 7.18C56.4005 7.2 55.7005 7.32 54.9405 7.55C54.1805 7.78 53.4705 7.96 52.8105 8.1C52.1505 8.24 51.6705 8.18 51.3505 7.91C51.1305 7.68 50.9205 7.33 50.7205 6.86C50.5205 6.39 50.3605 5.88 50.2405 5.3C50.1205 4.72 50.0605 4.15 50.0605 3.59C50.0605 2.96 50.1605 2.39 50.3605 1.89C50.5605 1.39 50.8905 1.06 51.3605 0.88C52.3005 0.59 53.7405 0.37 55.6805 0.22C57.6205 0.07 59.7005 0 61.9005 0C64.1005 0 66.1605 0.07 68.1105 0.22C70.0605 0.37 71.5105 0.59 72.4405 0.88C72.9105 1.06 73.2405 1.39 73.4405 1.88C73.6405 2.37 73.7405 2.93 73.7405 3.57C73.7405 3.91 73.7205 4.26 73.6705 4.61C73.6205 4.96 73.5605 5.3 73.4805 5.64C73.4005 5.98 73.3005 6.29 73.1905 6.58C73.0805 6.87 72.9605 7.13 72.8405 7.36C72.7205 7.59 72.5905 7.77 72.4405 7.91C72.1205 8.18 71.6405 8.24 70.9905 8.1C70.3405 7.96 69.6305 7.77 68.8705 7.55C68.1105 7.33 67.4105 7.2 66.7705 7.18C66.1305 7.16 65.6805 7.41 65.4105 7.91C65.1305 8.55 65.0205 9.55 65.0805 10.89C65.1405 12.23 65.2505 13.68 65.4105 15.25C65.5705 16.82 65.6905 18.27 65.7405 19.61C65.7905 20.95 65.6905 21.95 65.4105 22.61C65.1405 23.14 64.6805 23.53 64.0205 23.8C63.3605 24.07 62.6505 24.2 61.8905 24.2C61.1305 24.2 60.4405 24.07 59.7805 23.8C59.1205 23.53 58.6605 23.14 58.3705 22.61C58.0905 21.95 57.9805 20.95 58.0405 19.61C58.1005 18.27 58.2105 16.82 58.3705 15.25C58.5305 13.68 58.6505 12.23 58.7005 10.89C58.7505 9.55 58.6505 8.56 58.3705 7.91H58.3805Z" fill="#2721A2"/>
<path d="M82.5304 2.12996C82.8204 3.02996 83.0504 4.42996 83.2004 6.30996C83.3504 8.18996 83.4304 10.2 83.4304 12.32C83.4304 14.44 83.3504 16.46 83.2004 18.34C83.0504 20.22 82.8204 21.61 82.5304 22.51C82.3204 23.07 81.8804 23.49 81.2004 23.77C80.5204 24.05 79.8004 24.18 79.0104 24.18C78.2204 24.18 77.5004 24.04 76.8204 23.77C76.1404 23.5 75.7004 23.08 75.4904 22.51C75.3004 21.92 75.1404 21.11 75.0104 20.06C74.8804 19.01 74.7804 17.81 74.7104 16.47C74.6404 15.13 74.6104 13.74 74.6104 12.32C74.6104 10.9 74.6404 9.53996 74.7104 8.18996C74.7804 6.83996 74.8704 5.63996 75.0104 4.58996C75.1504 3.53996 75.3104 2.70996 75.4904 2.12996C75.7004 1.57996 76.1404 1.15996 76.8204 0.879961C77.5004 0.599961 78.2204 0.459961 79.0104 0.459961C79.8004 0.459961 80.5204 0.599961 81.2004 0.879961C81.8804 1.15996 82.3204 1.57996 82.5304 2.12996Z" fill="#2721A2"/>
<path d="M92.6403 7.91C92.3703 7.41 91.9203 7.16 91.2903 7.18C90.6603 7.2 89.9603 7.32 89.2003 7.55C88.4403 7.78 87.7303 7.96 87.0703 8.1C86.4103 8.24 85.9303 8.18 85.6103 7.91C85.3903 7.68 85.1803 7.33 84.9803 6.86C84.7803 6.39 84.6203 5.88 84.5003 5.3C84.3803 4.72 84.3203 4.15 84.3203 3.59C84.3203 2.96 84.4203 2.39 84.6203 1.89C84.8203 1.39 85.1503 1.06 85.6203 0.88C86.5603 0.59 88.0003 0.37 89.9403 0.22C91.8803 0.07 93.9603 0 96.1603 0C98.3603 0 100.42 0.07 102.37 0.22C104.32 0.37 105.77 0.59 106.7 0.88C107.17 1.06 107.5 1.39 107.7 1.88C107.9 2.37 108 2.93 108 3.57C108 3.91 107.98 4.26 107.93 4.61C107.88 4.96 107.82 5.3 107.74 5.64C107.66 5.98 107.56 6.29 107.45 6.58C107.34 6.87 107.22 7.13 107.1 7.36C106.98 7.59 106.85 7.77 106.7 7.91C106.38 8.18 105.9 8.24 105.25 8.1C104.6 7.96 103.89 7.77 103.13 7.55C102.37 7.33 101.67 7.2 101.03 7.18C100.39 7.16 99.9403 7.41 99.6703 7.91C99.3903 8.55 99.2803 9.55 99.3403 10.89C99.4003 12.23 99.5103 13.68 99.6703 15.25C99.8303 16.82 99.9503 18.27 100 19.61C100.05 20.95 99.9503 21.95 99.6703 22.61C99.4003 23.14 98.9403 23.53 98.2803 23.8C97.6203 24.07 96.9103 24.2 96.1503 24.2C95.3903 24.2 94.7003 24.07 94.0403 23.8C93.3803 23.53 92.9203 23.14 92.6303 22.61C92.3503 21.95 92.2403 20.95 92.3003 19.61C92.3603 18.27 92.4703 16.82 92.6303 15.25C92.7903 13.68 92.9103 12.23 92.9603 10.89C93.0103 9.55 92.9103 8.56 92.6303 7.91H92.6403Z" fill="#2721A2"/>
<path d="M20.73 59.43C26.54 59.43 31.25 55.1454 31.25 49.86C31.25 44.5747 26.54 40.29 20.73 40.29C14.9199 40.29 10.21 44.5747 10.21 49.86C10.21 55.1454 14.9199 59.43 20.73 59.43Z" fill="#2721A2"/>
<path d="M129.03 60.0902C134.84 60.0902 139.55 55.8056 139.55 50.5202C139.55 45.2348 134.84 40.9502 129.03 40.9502C123.22 40.9502 118.51 45.2348 118.51 50.5202C118.51 55.8056 123.22 60.0902 129.03 60.0902Z" fill="#2721A2"/>
</g>
<defs>
<clipPath id="clip0_848_1237">
<rect width="192.81" height="71.78" fill="white"/>
</clipPath>
</defs>
</svg>
