<svg width="103" height="62" viewBox="0 0 103 62" fill="none" xmlns="http://www.w3.org/2000/svg">
<path d="M102.142 0.609375H0.698242V58.5771H102.142V0.609375Z" fill="white" stroke="black" stroke-width="0.811368" stroke-miterlimit="10"/>
<path d="M79.1298 58.5795L79.4131 0.613281L78.5676 0.60915L78.2844 58.5753L79.1298 58.5795Z" fill="#B1B1B1" stroke="black" stroke-width="0.811368" stroke-miterlimit="10"/>
<path d="M99.6915 4.42651L81.5566 4.33789L81.532 9.37417L99.6669 9.4628L99.6915 4.42651Z" fill="#B1B1B1" stroke="black" stroke-width="0.811368" stroke-miterlimit="10"/>
<path d="M82.2395 4.84054L82.2197 8.88867L98.9727 8.97054L98.9925 4.92241L82.2395 4.84054Z" fill="#3D576B" stroke="black" stroke-width="0.811368" stroke-miterlimit="10"/>
<path d="M89.4831 15.0898H82.2246V18.9034H89.4831V15.0898Z" fill="#B1B1B1" stroke="black" stroke-width="0.811368" stroke-miterlimit="10"/>
<path d="M89.0599 15.5117H82.6465V18.4802H89.0599V15.5117Z" fill="white" stroke="black" stroke-width="0.811368" stroke-miterlimit="10"/>
<path d="M98.7351 15.0898H91.4766V18.9034H98.7351V15.0898Z" fill="#B1B1B1" stroke="black" stroke-width="0.811368" stroke-miterlimit="10"/>
<path d="M98.3119 15.5117H91.8984V18.4802H98.3119V15.5117Z" fill="white" stroke="black" stroke-width="0.811368" stroke-miterlimit="10"/>
<path d="M98.7351 20.8906H91.4766V24.7042H98.7351V20.8906Z" fill="#B1B1B1" stroke="black" stroke-width="0.811368" stroke-miterlimit="10"/>
<path d="M98.3119 21.3125H91.8984V24.281H98.3119V21.3125Z" fill="white" stroke="black" stroke-width="0.0399741" stroke-miterlimit="10"/>
<path d="M89.4831 20.8906H82.2246V24.7042H89.4831V20.8906Z" fill="#B1B1B1" stroke="black" stroke-width="0.0399741" stroke-miterlimit="10"/>
<path d="M89.9717 20.8906H82.6465V24.7042H89.9717V20.8906Z" fill="white" stroke="black" stroke-width="0.811368" stroke-miterlimit="10"/>
<path d="M96.5024 50.9043H85.0342V56.549H96.5024V50.9043Z" fill="#B1B1B1" stroke="black" stroke-width="0.811368" stroke-miterlimit="10"/>
<path d="M95.8528 51.4238H85.6846V56.0269H95.8528V51.4238Z" fill="white" stroke="black" stroke-width="0.0399741" stroke-miterlimit="10"/>
<path d="M70.83 4.36523H7.33594V54.823H70.83V4.36523Z" fill="#243A47" stroke="black" stroke-width="0.0399741" stroke-miterlimit="10"/>
<path d="M68.9727 7.3835V51.8064C68.9727 52.4851 68.3563 53.0356 67.5964 53.0356H10.5697C9.80936 53.0356 9.19336 52.4851 9.19336 51.8064V7.3835C9.19336 6.70474 9.80976 6.1543 10.5697 6.1543H67.596C68.3563 6.1543 68.9723 6.70474 68.9723 7.3835H68.9727Z" fill="#4D6777" stroke="black" stroke-width="0.0399741" stroke-miterlimit="10"/>
<path d="M70.8299 43.1053C72.5531 43.1053 73.9499 37.056 73.9499 29.5937C73.9499 22.1314 72.5531 16.082 70.8299 16.082C69.1068 16.082 67.71 22.1314 67.71 29.5937C67.71 37.056 69.1068 43.1053 70.8299 43.1053Z" fill="white" stroke="black" stroke-width="0.811368" stroke-miterlimit="10"/>
<path d="M90.769 44.9697C94.1952 44.9697 96.9726 42.1922 96.9726 38.7661C96.9726 35.3399 94.1952 32.5625 90.769 32.5625C87.3429 32.5625 84.5654 35.3399 84.5654 38.7661C84.5654 42.1922 87.3429 44.9697 90.769 44.9697Z" fill="#B1B1B1" stroke="black" stroke-width="0.0399741" stroke-miterlimit="10"/>
<path d="M90.7687 44.219C93.7805 44.219 96.222 41.7775 96.222 38.7658C96.222 35.754 93.7805 33.3125 90.7687 33.3125C87.7569 33.3125 85.3154 35.754 85.3154 38.7658C85.3154 41.7775 87.7569 44.219 90.7687 44.219Z" fill="white" stroke="black" stroke-width="0.811368" stroke-miterlimit="10"/>
<path d="M91.3753 42.5762H90.1621V45.8612H91.3753V42.5762Z" fill="#B1B1B1" stroke="black" stroke-width="0.811368" stroke-miterlimit="10"/>
<path d="M19.7319 58.5781H7.33594V61.3939H19.7319V58.5781Z" fill="white" stroke="black" stroke-width="0.811368" stroke-miterlimit="10"/>
<path d="M96.9673 58.5781H84.5713V61.3939H96.9673V58.5781Z" fill="white" stroke="black" stroke-width="0.811368" stroke-miterlimit="10"/>
</svg>
