<svg width="708" height="1118" viewBox="0 0 708 1118" fill="none" xmlns="http://www.w3.org/2000/svg">
<path d="M707.084 0.416016H0.0839844V1117.42H707.084V0.416016Z" fill="#C9E4F7"/>
<path d="M65.8281 217.265C64.1117 210.354 63.2422 203.184 63.2422 195.923C63.2422 157.349 87.5428 125.98 117.41 125.98C120.854 125.98 124.332 126.409 127.754 127.267C127.844 127.29 127.935 127.301 128.025 127.301C128.454 127.301 128.849 127.064 129.041 126.668C146.42 91.2677 176.141 70.1289 208.56 70.1289C240.98 70.1289 270.701 91.2677 288.079 126.668C288.271 127.064 288.666 127.301 289.096 127.301C289.186 127.301 289.276 127.301 289.367 127.267C292.788 126.409 296.266 125.98 299.71 125.98C329.578 125.98 353.878 157.36 353.878 195.923C353.878 203.184 353.009 210.354 351.292 217.265H65.8281Z" fill="#F7F4E9"/>
<path d="M208.561 71.2584C240.54 71.2584 269.877 92.1601 287.063 127.166C287.447 127.956 288.249 128.43 289.085 128.43C289.265 128.43 289.446 128.408 289.638 128.363C292.969 127.527 296.357 127.109 299.71 127.109C328.957 127.109 352.749 157.982 352.749 195.923C352.749 202.789 351.959 209.575 350.401 216.136H66.7205C65.1621 209.575 64.3717 202.789 64.3717 195.923C64.3717 157.982 88.1642 127.109 117.411 127.109C120.764 127.109 124.152 127.527 127.483 128.363C127.664 128.408 127.845 128.43 128.037 128.43C128.883 128.43 129.674 127.956 130.058 127.166C147.233 92.1601 176.581 71.2584 208.561 71.2584ZM208.561 69C174.639 69 144.884 91.8326 128.037 126.172C124.604 125.314 121.047 124.851 117.422 124.851C86.8656 124.839 62.1133 156.661 62.1133 195.923C62.1133 203.783 63.1183 211.326 64.9476 218.395H352.162C353.992 211.326 354.997 203.783 354.997 195.923C354.997 156.672 330.244 124.851 299.699 124.851C296.063 124.851 292.517 125.314 289.073 126.172C272.237 91.8326 242.482 69 208.561 69Z" fill="#031F28"/>
<path d="M358.711 1047.7C356.994 1040.79 356.125 1033.62 356.125 1026.36C356.125 987.787 380.426 956.417 410.293 956.417C413.737 956.417 417.215 956.846 420.637 957.704C420.727 957.727 420.817 957.738 420.908 957.738C421.337 957.738 421.732 957.501 421.924 957.106C439.303 921.705 469.023 900.566 501.443 900.566C533.863 900.566 563.584 921.705 580.962 957.106C581.154 957.501 581.549 957.738 581.978 957.738C582.069 957.738 582.159 957.738 582.249 957.704C585.671 956.846 589.149 956.417 592.593 956.417C622.461 956.417 646.761 987.798 646.761 1026.36C646.761 1033.62 645.892 1040.79 644.175 1047.7H358.711Z" fill="#F7F4E9"/>
<path d="M501.443 901.696C533.423 901.696 562.76 922.598 579.946 957.603C580.33 958.394 581.132 958.868 581.967 958.868C582.148 958.868 582.329 958.845 582.521 958.8C585.852 957.964 589.24 957.547 592.593 957.547C621.84 957.547 645.632 988.419 645.632 1026.36C645.632 1033.23 644.842 1040.01 643.284 1046.57H359.603C358.045 1040.01 357.255 1033.23 357.255 1026.36C357.255 988.419 381.047 957.547 410.294 957.547C413.647 957.547 417.035 957.964 420.366 958.8C420.547 958.845 420.727 958.868 420.919 958.868C421.766 958.868 422.557 958.394 422.941 957.603C440.116 922.598 469.464 901.696 501.443 901.696ZM501.443 899.438C467.522 899.438 437.767 922.27 420.919 956.609C417.487 955.751 413.93 955.288 410.305 955.288C379.748 955.277 354.996 987.098 354.996 1026.36C354.996 1034.22 356.001 1041.76 357.83 1048.83H645.045C646.874 1041.76 647.879 1034.22 647.879 1026.36C647.879 987.109 623.127 955.288 592.582 955.288C588.946 955.288 585.4 955.751 581.956 956.609C565.12 922.27 535.365 899.438 501.443 899.438Z" fill="#031F28"/>
</svg>
