<svg width="93" height="91" viewBox="0 0 93 91" fill="none" xmlns="http://www.w3.org/2000/svg">
<path d="M77.3427 12.0074L77.3424 12.0074L15.9475 11.8462L77.3427 12.0074ZM77.3427 12.0074C79.7575 12.0113 81.7107 13.9756 81.7042 16.3904L81.5536 74.8741L81.5536 74.8744C81.5497 77.2892 79.5854 79.2425 77.1706 79.2359L15.7749 79.0776C13.3599 79.071 11.4065 77.1091 11.413 74.6946L11.064 74.6937M77.3427 12.0074L11.064 74.6937M11.064 74.6937L11.413 74.6946L11.5641 16.208C11.5641 16.208 11.5641 16.208 11.5641 16.208C11.5707 13.7935 13.5318 11.8425 15.9471 11.8462L11.064 74.6937ZM12.1347 31.7216L12.1347 31.7214L12.1652 19.8812L12.1347 31.7216ZM12.1347 31.7216C12.133 32.6645 12.893 33.4319 13.8378 33.4336C14.7806 33.4353 15.5479 32.6754 15.5497 31.7308L12.1347 31.7216ZM15.5802 19.8901L15.5802 19.8904L15.5497 31.7305L15.5802 19.8901ZM15.5802 19.8901C15.5819 18.9472 14.8219 18.1799 13.8771 18.1782C12.9343 18.1765 12.167 18.9363 12.1652 19.881L15.5802 19.8901ZM77.2495 68.8635L77.2495 68.8632L77.28 57.0231L77.2495 68.8635ZM77.2495 68.8635C77.2478 69.8064 78.0078 70.5737 78.9526 70.5754C79.8954 70.5771 80.6626 69.8172 80.6645 68.8726L77.2495 68.8635ZM80.695 57.0319L80.695 57.0322L80.6645 68.8724L80.695 57.0319ZM80.695 57.0319C80.6967 56.089 79.9366 55.3217 78.9919 55.32C78.0491 55.3183 77.2818 56.0782 77.28 57.0228L80.695 57.0319ZM77.2997 50.3775L77.2997 50.3772L77.3301 38.5371L77.2997 50.3775ZM77.2997 50.3775C77.298 51.3204 78.058 52.0877 79.0027 52.0894C79.9455 52.0911 80.7128 51.3312 80.7147 50.3866L77.2997 50.3775ZM80.7451 38.5459L80.7451 38.5462L80.7146 50.3864L80.7451 38.5459ZM80.7451 38.5459C80.7468 37.6031 79.9868 36.8357 79.0421 36.834C78.0993 36.8323 77.332 37.5922 77.3301 38.5368L80.7451 38.5459ZM77.347 31.891L77.347 31.8907L77.3774 20.0506L77.347 31.891ZM77.347 31.891C77.3453 32.8339 78.1053 33.6013 79.05 33.6029C79.9928 33.6046 80.7601 32.8448 80.7619 31.9002L77.347 31.891ZM80.7924 20.0595L80.7924 20.0597L80.7619 31.8999L80.7924 20.0595ZM80.7924 20.0595C80.7941 19.1166 80.0341 18.3492 79.0894 18.3475C78.1466 18.3459 77.3793 19.1057 77.3774 20.0503L80.7924 20.0595ZM12.0401 68.6943L12.0401 68.6946C12.0385 69.6375 12.7985 70.4048 13.7432 70.4065C14.676 70.4082 15.437 69.6644 15.4548 68.7337L15.4555 68.7294L15.4556 68.7008L15.4856 56.8633L15.4856 56.863C15.4873 55.9202 14.7273 55.1528 13.7826 55.1511C12.8397 55.1494 12.0723 55.9094 12.0706 56.8542L12.0401 68.6943ZM12.0874 50.2079L12.0874 50.2081C12.0858 51.151 12.8458 51.9184 13.7905 51.9201C14.7334 51.9217 15.5007 51.1617 15.5024 50.217L15.5329 38.3768L15.5329 38.3766C15.5346 37.4337 14.7746 36.6663 13.8298 36.6646C12.887 36.663 12.1196 37.423 12.1179 38.3677L12.0874 50.2079Z" fill="#626E7A" stroke="black" stroke-width="0.698155"/>
<path d="M75.8311 73.4401L75.975 17.7672L75.8311 73.4401ZM75.8311 73.4401L75.8306 73.4431L75.8306 73.4717C75.8296 74.029 75.3773 74.4787 74.8183 74.4779L75.8311 73.4401ZM74.818 74.4779L18.147 74.3316L18.1467 74.3316C17.5895 74.3306 17.1397 73.8784 17.1405 73.3193L74.818 74.4779ZM17.1405 73.319L17.2849 17.6148L17.2849 17.6145C17.2859 17.0572 17.7383 16.6074 18.2975 16.6084L74.9685 16.7547L74.9688 16.7547C75.526 16.7557 75.9758 17.2079 75.975 17.767L17.1405 73.319Z" fill="#4A535C" stroke="black" stroke-width="0.698155"/>
</svg>
