<svg width="48" height="49" viewBox="0 0 48 49" fill="none" xmlns="http://www.w3.org/2000/svg">
<g clip-path="url(#clip0_1318_3097)">
<path d="M36.2905 0.283203L9.63571 0.506993L8.29297 3.41906V44.1839C8.29297 48.2163 11.205 48.2163 11.205 48.2163H36.0681C37.4766 48.2163 38.1522 47.1197 38.4739 46.1784C38.6725 45.5965 38.7564 44.9853 38.7536 44.3699C38.7284 39.8661 38.5326 5.5115 38.5326 3.41766L36.2905 0.283203Z" fill="#ACEBFE" stroke="black" stroke-width="0.72167" stroke-miterlimit="10"/>
<path d="M9.63574 0.507812V43.0014C9.63574 44.6476 10.0875 46.2939 11.0876 47.6017C11.2722 47.8436 11.517 48.0534 11.875 48.2171" fill="#ACEBFE"/>
<path d="M9.63574 0.507812V43.0014C9.63574 44.6476 10.0875 46.2939 11.0876 47.6017C11.2722 47.8436 11.517 48.0534 11.875 48.2171" stroke="black" stroke-width="0.72167" stroke-miterlimit="10"/>
<path d="M36.2909 0.171875V42.6766C36.2909 43.9606 36.0671 45.7523 35.8433 46.4251C35.5356 47.3468 35.3314 47.7343 34.2754 48.2168" fill="#ACEBFE"/>
<path d="M36.2909 0.171875V42.6766C36.2909 43.9606 36.0671 45.7523 35.8433 46.4251C35.5356 47.3468 35.3314 47.7343 34.2754 48.2168" stroke="black" stroke-width="0.72167" stroke-miterlimit="10"/>
<path opacity="0.84" d="M8.51692 12.6035L10.0849 13.9477C10.0849 13.9477 32.931 14.8442 36.7397 13.7239C36.7397 13.7239 37.86 13.9477 38.5314 13.0525V35.6749C38.5314 35.6749 37.1872 36.5714 35.1717 36.7952C33.1562 37.019 15.2376 37.9156 10.3086 36.5714C10.3086 36.5714 8.51692 35.9001 8.29313 35.4511C8.06934 35.0021 8.51692 12.6049 8.51692 12.6049V12.6035Z" fill="white" stroke="black" stroke-width="0.72167" stroke-miterlimit="10"/>
<path d="M8.29297 13.0507L9.8609 14.1711C9.8609 14.1711 31.1392 15.5152 36.7395 14.1711C36.7395 14.1711 38.3074 14.1711 38.5312 13.4997C38.755 12.8283 38.5312 10.5877 38.5312 10.5877C38.5312 10.5877 37.4109 11.259 36.5157 11.259C35.6205 11.259 12.3254 12.6032 9.63711 11.0352L8.29297 10.1387V13.0507Z" fill="white" stroke="black" stroke-width="0.72167" stroke-miterlimit="10"/>
<path d="M8.29297 37.8574L9.8609 38.9777C9.8609 38.9777 31.1392 40.3219 36.7395 38.9777C36.7395 38.9777 38.3074 38.9777 38.5312 38.3064C38.755 37.635 38.5312 35.3943 38.5312 35.3943C38.5312 35.3943 37.4109 36.0657 36.5157 36.0657C35.6205 36.0657 12.3254 37.4098 9.63711 35.8419L8.29297 34.9453V37.8574Z" fill="white" stroke="black" stroke-width="0.72167" stroke-miterlimit="10"/>
<path d="M8.29297 3.41797L9.6413 3.79981L36.2038 3.74666L38.5312 3.41797" stroke="black" stroke-width="0.72167" stroke-miterlimit="10"/>
</g>
<path d="M16.8499 23.9128C16.8499 24.1047 17.022 24.1841 17.5911 24.1841C18.6168 24.1841 19.0006 24.4951 19.0006 25.1767C19.0006 25.8186 18.4778 26.2025 17.6109 26.2025C16.936 26.2025 16.5257 26.09 16.1948 25.812C16.122 25.7458 16.0823 25.6532 16.0823 25.5606C16.0823 25.3488 16.2213 25.2098 16.4132 25.2098C16.4793 25.2098 16.5521 25.2297 16.6249 25.2826C16.883 25.4745 17.1742 25.5606 17.5514 25.5606C18.0014 25.5606 18.2727 25.415 18.2727 25.1701C18.2727 24.9584 18.0874 24.8591 17.4985 24.8591C16.4992 24.8591 16.1154 24.5613 16.1154 23.9062C16.1154 23.2709 16.6514 22.8738 17.5117 22.8738C18.0543 22.8738 18.4051 22.9665 18.7161 23.1981C18.8153 23.2709 18.8617 23.3701 18.8617 23.476C18.8617 23.6878 18.7227 23.8268 18.5308 23.8268C18.4315 23.8268 18.3455 23.7804 18.2727 23.7275C18.0874 23.5885 17.8359 23.5157 17.558 23.5157C17.1279 23.5157 16.8499 23.6679 16.8499 23.9128ZM22.2366 22.9135C22.4616 22.9135 22.6006 23.0657 22.6006 23.304V25.7988C22.6006 26.0105 22.4484 26.1628 22.23 26.1628C22.0182 26.1628 21.8727 26.0105 21.8727 25.7988V25.7525H21.8594C21.6344 26.037 21.2837 26.2025 20.8271 26.2025C19.9602 26.2025 19.4903 25.6863 19.4903 24.7334V23.304C19.4903 23.0657 19.6293 22.9135 19.8543 22.9135C20.0793 22.9135 20.2183 23.0657 20.2183 23.304V24.6539C20.2183 25.2297 20.4962 25.5341 21.0058 25.5341C21.5418 25.5341 21.8727 25.1635 21.8727 24.5481V23.304C21.8727 23.0657 22.0116 22.9135 22.2366 22.9135ZM26.3079 25.4216C26.3079 25.501 26.2814 25.5738 26.2351 25.6333C25.9373 25.9973 25.4741 26.2025 24.9314 26.2025C23.9189 26.2025 23.2307 25.5275 23.2307 24.5415C23.2307 23.5488 23.9189 22.8738 24.9314 22.8738C25.4079 22.8738 25.8248 23.0326 26.1424 23.3437C26.2086 23.4098 26.2417 23.4959 26.2417 23.5885C26.2417 23.7937 26.1093 23.9326 25.9042 23.9326C25.8182 23.9326 25.7321 23.8995 25.666 23.84C25.4674 23.6481 25.2226 23.5422 24.9314 23.5422C24.3623 23.5422 23.9719 23.9459 23.9719 24.5415C23.9719 25.1304 24.3623 25.5341 24.9314 25.5341C25.2491 25.5341 25.5204 25.4216 25.6858 25.2098C25.752 25.1304 25.8446 25.0775 25.9571 25.0775C26.1689 25.0775 26.3079 25.2164 26.3079 25.4216ZM28.5929 22.8937C28.8113 22.8937 28.9568 23.0326 28.9568 23.2576C28.9568 23.4826 28.8113 23.6216 28.5929 23.6216C27.9576 23.6216 27.587 23.9591 27.587 24.7334V25.7723C27.587 26.0172 27.4547 26.1628 27.2231 26.1628C26.9981 26.1628 26.8591 26.0172 26.8591 25.7723V23.304C26.8591 23.0657 26.9981 22.9135 27.2231 22.9135C27.4547 22.9135 27.587 23.0657 27.587 23.304V23.4231H27.6003C27.7988 23.079 28.1363 22.8937 28.5929 22.8937ZM30.767 23.5223C30.3038 23.5223 29.9332 23.7937 29.8339 24.2172H31.6802C31.581 23.7937 31.2302 23.5223 30.767 23.5223ZM32.1038 25.6532C31.8126 26.0039 31.356 26.2025 30.8001 26.2025C29.7545 26.2025 29.0663 25.5275 29.0663 24.5415C29.0663 23.5488 29.7545 22.8738 30.767 22.8738C31.6868 22.8738 32.3883 23.5356 32.3883 24.3429V24.376C32.3883 24.6341 32.2163 24.7995 31.9582 24.7995H29.8339C29.92 25.2628 30.2905 25.5539 30.8001 25.5539C31.1442 25.5539 31.4089 25.415 31.5677 25.2297C31.6471 25.137 31.7332 25.0973 31.8391 25.0973C32.0508 25.0973 32.1832 25.2297 32.1832 25.4348C32.1832 25.5142 32.1567 25.587 32.1038 25.6532Z" fill="black"/>
<defs>
<clipPath id="clip0_1318_3097">
<rect width="30.7404" height="48.154" fill="white" transform="translate(8.12109 0.171875)"/>
</clipPath>
</defs>
</svg>
