<svg width="137" height="179" viewBox="0 0 137 179" fill="none" xmlns="http://www.w3.org/2000/svg">
<path d="M71.4965 1.375C55.3732 1.375 39.1821 1.64081 23.1163 3.11535C18.2106 3.56535 13.2621 4.07919 8.44202 5.12675C6.9492 5.45117 5.39998 5.78082 3.98447 6.37001C1.41357 7.44059 1.36133 8.49548 1.29865 11.3828C1.25269 13.4936 0.710512 16.5201 1.64235 18.4363C2.06543 19.307 2.84788 19.9475 3.65958 20.4749C3.94686 20.6622 4.23832 20.8412 4.535 21.0139C4.53918 47.9239 4.55485 111.343 4.55485 124.675C4.55485 133.965 4.53918 143.255 4.52038 152.546L4.51202 152.544C-0.518005 151.235 0.528742 166.771 2.9513 170.305C8.77318 178.802 21.2641 178.154 63.11 178.154C104.956 178.154 126.623 177.024 131.357 172.044C135.854 167.314 135.23 155.633 132.674 152.053C132.219 151.416 131.826 151.216 131.345 151.346C131.353 150.909 131.356 150.458 131.356 149.99V120.821C131.356 108.973 131.341 49.793 131.337 22.8327C131.649 22.6339 131.957 22.4225 132.258 22.1964C136.407 19.0914 134.572 13.0112 134.572 8.62839" fill="#DDE6AC"/>
<path d="M71.4965 1.375C55.3732 1.375 39.1821 1.64081 23.1163 3.11535C18.2106 3.56535 13.2621 4.07919 8.44202 5.12675C6.9492 5.45117 5.39998 5.78082 3.98447 6.37001C1.41357 7.44059 1.36133 8.49548 1.29865 11.3828C1.25269 13.4936 0.710512 16.5201 1.64235 18.4363C2.06543 19.307 2.84788 19.9475 3.65958 20.4749C3.94686 20.6622 4.23832 20.8412 4.535 21.0139C4.53918 47.9239 4.55485 111.343 4.55485 124.675C4.55485 133.965 4.53918 143.255 4.52038 152.546L4.51202 152.544C-0.518005 151.235 0.528742 166.771 2.9513 170.305C8.77318 178.802 21.2641 178.154 63.11 178.154C104.956 178.154 126.623 177.024 131.357 172.044C135.854 167.314 135.23 155.633 132.674 152.053C132.219 151.416 131.826 151.216 131.345 151.346C131.353 150.909 131.356 150.458 131.356 149.99V120.821C131.356 108.973 131.341 49.793 131.337 22.8327C131.649 22.6339 131.957 22.4225 132.258 22.1964C136.407 19.0914 134.572 13.0112 134.572 8.62839" stroke="#1D1D1C" stroke-miterlimit="10"/>
<path d="M85.0556 28.3667C94.096 28.149 100.714 27.5745 109.742 27.0805C116.069 26.7341 125.761 26.3794 131.337 22.8327C131.649 22.6339 131.958 22.4225 132.258 22.1964C136.408 19.0914 136.26 12.9965 134.572 8.62839C132.465 3.17814 113.344 1.375 71.497 1.375C55.3737 1.375 39.1826 1.64081 23.1168 3.11535C18.2111 3.56535 13.2625 4.07919 8.4425 5.12675C6.94968 5.45117 5.40046 5.78082 3.98495 6.37001C1.41405 7.44059 0.997227 8.49548 0.934548 11.3828C0.888583 13.4936 0.710991 16.5201 1.64283 18.4363C2.06591 19.307 2.84836 19.9475 3.66006 20.4749C3.94734 20.6622 4.22313 20.8726 4.53548 21.0139C10.5924 23.739 21.6626 26.4819 30.4409 27.0805C48.8279 28.3342 66.8127 28.8062 85.0556 28.3667Z" fill="#BCB46D" stroke="#1E1E1D" stroke-miterlimit="10"/>
<path d="M129.36 10.2219C129.36 6.41887 109.716 3.83398 70.9913 3.83398C32.2669 3.83398 6.0293 6.35818 6.0293 10.1612C6.0293 13.9642 32.2669 17.6051 70.9913 17.6051C109.716 17.6051 129.36 14.0249 129.36 10.223V10.2219Z" fill="#988855" stroke="#1E1F1D" stroke-miterlimit="10"/>
<path d="M131.346 151.345C128.194 152.193 121.219 167.167 67.9361 166.297C14.1018 165.417 10.6398 154.147 4.52233 152.545L4.51397 152.542C-0.516052 151.233 0.530695 166.77 2.95325 170.304C8.77513 178.8 21.2661 178.153 63.1119 178.153C104.958 178.153 126.625 177.022 131.359 172.042C135.856 167.313 135.232 155.632 132.676 152.052C132.221 151.414 131.828 151.214 131.347 151.344L131.346 151.345Z" fill="#BCB46D" stroke="#1D1D1B" stroke-miterlimit="10"/>
<path d="M43.6627 6.66381C34.0028 6.66381 24.6113 8.25974 24.6113 9.99695C24.6113 11.4014 34.0028 13.1899 43.6627 13.2108C49.8377 13.2244 61.2997 14.407 61.3728 9.93521C61.4438 5.65078 53.3227 6.66276 43.6627 6.66276V6.66381ZM49.6047 11.4307C46.9137 11.4307 44.7325 10.8007 44.7325 10.0231C44.7325 9.24556 46.9137 8.61556 49.6047 8.61556C52.2958 8.61556 54.477 9.24556 54.477 10.0231C54.477 10.8007 52.2958 11.4307 49.6047 11.4307Z" fill="#BCB46D" stroke="#1E1F1D" stroke-miterlimit="10"/>
<path d="M49.6047 8.61523C46.9137 8.61523 44.7324 9.24524 44.7324 10.0228C44.7324 10.8004 46.9137 11.4304 49.6047 11.4304C52.2957 11.4304 54.477 10.8004 54.477 10.0228C54.477 9.24524 52.2957 8.61523 49.6047 8.61523Z" fill="#736840"/>
<path d="M4.55566 57.9492C4.55566 57.9492 90.5268 62.9965 131.357 56.5469V117.116C131.357 117.116 81.9313 143.194 4.55566 117.116V57.9492Z" fill="#6A7D45" stroke="#1E1E1C" stroke-miterlimit="10"/>
<path d="M68.9951 111.447C70.7857 105.851 67.6078 99.7064 62.4169 97.2125C54.9884 93.6502 49.1404 100.24 48.5136 107.306C47.9766 113.422 51.8398 118.557 57.6575 120.072C62.7596 119.493 67.3686 116.538 68.9951 111.447ZM60.9252 99.4091C61.2083 99.2009 61.5519 99.5577 61.2981 99.81C61.015 100.107 60.6567 100.314 60.2691 100.448C60.6421 101.116 61.2093 101.695 61.8351 102.304C61.9844 102.452 61.8048 102.749 61.6115 102.66C60.7465 102.259 60.15 101.472 59.8063 100.581C59.4188 100.656 59.0301 100.67 58.6572 100.626C58.4336 100.597 58.4483 100.285 58.6718 100.27C59.0145 100.27 59.3279 100.196 59.6413 100.093C59.4919 99.5734 59.4177 99.0533 59.4177 98.5636C59.4177 98.3407 59.7604 98.371 59.7604 98.5929C59.7604 99.0973 59.8795 99.5431 60.0435 99.9439C60.3569 99.7953 60.64 99.6174 60.9387 99.4091H60.9241H60.9252Z" fill="#4B4B4A" stroke="#1E1F1D" stroke-miterlimit="10"/>
<path d="M67.8427 110.945C66.0521 105.35 69.23 99.2044 74.4209 96.7106C81.8494 93.1482 87.6974 99.7381 88.3242 106.804C88.8612 112.92 84.998 118.055 79.1803 119.57C74.0782 118.991 69.4692 116.037 67.8427 110.945ZM75.9137 98.9072C75.6306 98.6989 75.2869 99.0558 75.5407 99.308C75.8238 99.6052 76.1822 99.8124 76.5697 99.9464C76.1968 100.614 75.6295 101.193 75.0038 101.802C74.8544 101.95 75.0341 102.247 75.2273 102.158C76.0923 101.757 76.6888 100.97 77.0325 100.079C77.4201 100.154 77.8087 100.168 78.1816 100.124C78.4052 100.095 78.3906 99.7831 78.167 99.7685C77.8244 99.7685 77.511 99.6942 77.1976 99.5906C77.347 99.0715 77.4211 98.5514 77.4211 98.0616C77.4211 97.8387 77.0785 97.8691 77.0785 98.0909C77.0785 98.5953 76.9594 99.0412 76.7954 99.442C76.482 99.2934 76.1989 99.1155 75.9001 98.9072H75.9147H75.9137Z" fill="#4B4B4A" stroke="#1E1E1D" stroke-miterlimit="10"/>
<path d="M61.7934 87.0177C56.4719 83.0796 49.5656 78.7042 40.2818 73.2455C39.4126 72.7338 39.2016 72.4554 39.5474 72.4303C40.6202 72.3497 47.0564 74.7086 55.7751 80.1117C57.4685 81.1614 59.2496 82.3261 61.0924 83.6102C59.7824 80.6915 57.8602 78.0156 55.5651 75.7907C52.5252 72.8437 48.8887 70.6157 45.0015 68.9098C42.9571 68.0119 40.8438 67.2595 38.7117 66.6222C36.7749 66.0434 34.5821 65.5756 32.8146 66.5573C31.3207 67.3861 30.4829 69.1348 30.4432 70.8448C30.4025 72.5548 31.0627 74.2188 31.9778 75.663C34.8391 80.1808 39.9047 82.6432 44.9535 84.5636C45.4758 84.7624 45.996 84.955 46.5152 85.1434C51.1253 86.8188 59.4356 91.2037 62.0953 92.6291C62.3721 90.6522 62.3679 88.6691 61.7934 87.0198V87.0177Z" fill="#74B72B" stroke="#1E1F1E" stroke-miterlimit="10"/>
<path d="M78.9334 96.3247C82.3025 92.5081 84.5297 87.6376 86.6326 82.9262C88.1452 79.5386 89.6662 76.1218 90.5803 72.5322C90.6869 72.1136 90.7851 71.6919 90.8739 71.268C91.7221 67.2348 91.6772 62.8938 89.9765 59.1421L89.9493 59.0814C89.4291 57.947 88.5213 56.7403 87.2761 56.7906C86.2366 56.8324 85.4667 57.7366 84.8357 58.5644C80.4827 64.2721 73.7739 68.298 71.1267 74.9738C68.7303 81.0142 70.2398 88.569 72.8316 94.757C73.4605 95.5461 74.0507 96.3059 74.5803 97.0018C75.8893 96.4702 77.4197 96.3007 78.9345 96.3226L78.9334 96.3247Z" fill="#74B72B" stroke="#1E1F1E" stroke-miterlimit="10"/>
<path d="M60.5705 98.6669C60.0252 98.6156 59.4653 98.7056 58.944 98.8814C58.4509 99.0478 57.9087 99.4089 57.9411 99.929C57.9672 100.36 58.4029 101.671 60.3344 102.298C60.9278 102.491 61.6204 102.498 62.1302 102.138C62.7288 101.716 62.9367 100.858 62.6912 100.168C62.5523 99.7793 62.2911 99.4476 61.9641 99.1964L61.985 99.1546C62.173 98.7757 62.3454 98.3885 62.5021 97.995C63.717 94.9497 64.0012 91.4983 63.4026 88.2321C67.6481 91.5045 70.8092 94.5101 73.3739 97.6465C73.6664 98.0055 73.9526 98.3655 74.2305 98.7276C73.9557 99.2121 73.7886 99.7626 73.7081 100.316C73.6246 100.893 73.7102 101.615 74.2441 101.846C74.6859 102.038 76.2091 102.266 77.8095 100.653C78.3005 100.158 78.6567 99.4706 78.5564 98.7799C78.4394 97.9689 77.6914 97.3284 76.8797 97.2258C76.2602 97.1473 75.6314 97.3483 75.1205 97.7156C74.9492 97.4875 74.7685 97.2489 74.5804 97.0029C74.0508 96.308 73.4606 95.5472 72.8317 94.7582C70.4216 91.7337 67.4381 88.2886 65.049 86.4823C63.7045 85.4651 62.383 84.5086 61.0918 83.6096C59.248 82.3256 57.4679 81.1608 55.7745 80.1111C47.0558 74.708 40.6197 72.3491 39.5468 72.4297C39.201 72.4559 39.4121 72.7343 40.2812 73.245C49.5651 78.7036 56.4713 83.0791 61.7928 87.0171C62.3663 88.6674 62.3715 90.6495 62.0947 92.6264C61.8482 94.3898 61.3791 96.149 60.8933 97.6633C60.8338 97.8485 60.7742 98.0306 60.7147 98.2085C60.6646 98.3592 60.6113 98.512 60.5716 98.6669H60.5705Z" fill="#2A200D" stroke="#1E1F1E" stroke-miterlimit="10"/>
<path d="M86.0823 64.8392C86.2337 64.5608 86.3852 64.2636 86.3737 63.9465C86.3622 63.6294 86.1251 63.2977 85.8086 63.3008C85.5777 63.3029 85.3876 63.4714 85.2204 63.6305C84.4683 64.3505 83.7412 65.0966 83.0402 65.8658C82.7091 66.23 82.3831 66.5984 82.0645 66.973C80.3565 68.974 78.7979 71.1287 77.6895 73.5158C76.0556 77.0342 75.596 82.3798 75.6158 86.7982C75.642 92.6492 76.508 96.8751 76.602 93.0814C76.6678 90.4066 77.3489 83.2285 77.607 81.4118C78.0457 78.3151 79.0392 74.1814 80.6699 71.5149C82.3006 68.8484 84.5874 67.5842 86.0823 64.8381V64.8392Z" fill="#2A200D" stroke="#1E1F1E" stroke-miterlimit="10"/>
</svg>
