<svg width="168" height="279" viewBox="0 0 168 279" fill="none" xmlns="http://www.w3.org/2000/svg">
<path d="M21.7303 0.952129C21.7303 0.952129 12.0498 0.952129 12.0498 10.6067C12.0498 20.2614 21.6691 20.5073 21.6691 20.5073L147.026 20.2614C147.026 20.2614 156.645 20.5073 156.645 10.6682C156.645 0.82914 146.352 0.890634 146.352 0.890634H21.7303V0.952129Z" fill="#376F3D" stroke="black" stroke-miterlimit="10"/>
<path d="M23.9364 20.6309H145.372L153.153 34.1596C153.153 34.1596 166.632 32.2533 166.632 47.6884V266.301C166.632 266.301 164.733 277.985 155.052 277.985H13.5819C13.5819 277.985 0.837891 276.078 0.837891 262.488V47.6269C0.837891 47.6269 2.73723 34.1596 16.2777 34.1596L23.9976 20.6309H23.9364Z" fill="#BD3325" stroke="black" stroke-miterlimit="10"/>
<path d="M166.939 92.2109H0.837891V215.384H166.939V92.2109Z" fill="white" stroke="black" stroke-width="0.31" stroke-miterlimit="10"/>
<path d="M44.0396 200.948C31.1133 189.386 22.9043 172.343 22.9043 153.237C22.9043 134.133 30.8073 117.781 43.3086 106.223H124.284C136.783 117.72 144.688 134.509 144.688 153.237C144.688 171.967 136.295 189.761 123.128 201.264L44.0396 200.948Z" fill="#376F3D" stroke="black"/>
<path d="M1.25684 106.206V92.6934H166.439V106.206H1.25684Z" fill="#30532F" stroke="black"/>
<path d="M1.19531 215.622V201.125H166.132V215.622H1.19531Z" fill="#30532F" stroke="black"/>
<path d="M84.3471 200.564C109.895 200.564 130.605 179.777 130.605 154.135C130.605 128.494 109.895 107.707 84.3471 107.707C58.7994 107.707 38.0889 128.494 38.0889 154.135C38.0889 179.777 58.7994 200.564 84.3471 200.564Z" fill="#E7E7E7"/>
<path d="M116.024 167.664C110.755 183.591 92.7415 191.955 75.77 186.359C58.7984 180.701 49.3017 163.237 54.5708 147.248C55.5511 144.358 56.8991 141.652 58.6146 139.316C60.6978 136.425 63.5161 134.211 66.7021 132.736C69.4592 131.444 72.4614 130.768 75.5861 130.706C79.9975 130.583 85.7568 131.198 92.3739 133.412C98.0107 135.318 102.483 137.471 105.853 139.5C107.201 140.299 108.365 141.037 109.345 141.714C109.468 141.837 109.652 141.898 109.774 142.021C111.674 143.374 113.267 145.096 114.492 147.064C115.656 148.909 116.514 150.938 116.943 153.09C117.862 157.887 117.617 162.868 116.024 167.726V167.664Z" fill="#DB3934" stroke="#1D1D1B" stroke-width="0.02" stroke-miterlimit="10"/>
<path d="M117.922 141.281C117.739 141.65 113.45 149.829 102.299 140.113C102.299 140.113 101.931 139.805 101.747 139.621C101.809 139.805 102.912 142.573 102.115 147.369C102.115 147.369 97.2135 139.191 91.6993 137.161C91.6993 137.161 82.6315 135.562 78.2201 141.589C78.2201 141.589 76.382 137.653 82.08 133.287C82.08 133.287 66.7015 135.87 64.1895 126.523C64.312 126.646 67.1916 129.044 70.9291 128.429C74.789 127.814 84.8372 125.6 90.4739 130.274C90.4739 130.274 92.6183 128.798 91.8218 124.801C91.8218 124.801 94.7015 123.878 97.8875 125.108C97.8875 125.108 97.8875 125.908 97.6424 127.076C97.3361 128.245 96.6621 129.782 95.2529 131.381C95.2529 131.381 99.3579 130.581 104.566 136.116C109.774 141.589 117.922 141.343 117.922 141.343V141.281Z" fill="#7BE165" stroke="#1D1D1B" stroke-width="0.02" stroke-miterlimit="10"/>
<g opacity="0.25">
<path d="M65.2314 128.922C65.2314 128.922 70.6231 131.628 77.9754 131.259C85.3277 130.89 87.2883 131.935 87.2883 131.935C87.2883 131.935 83.6735 132.181 81.5903 133.657C79.5072 135.071 68.6012 134.087 65.2314 128.922Z" fill="#330570" stroke="#1D1D1B" stroke-width="0.02" stroke-miterlimit="10"/>
</g>
<g opacity="0.25">
<path d="M102.054 147.371C102.054 147.371 97.1526 139.192 91.6384 137.163C91.6384 137.163 82.5706 135.564 78.1592 141.59C78.1592 141.59 80.0585 135.195 87.2883 134.518C94.518 133.842 100.829 138.454 102.054 147.371Z" fill="#330570" stroke="#1D1D1B" stroke-width="0.02" stroke-miterlimit="10"/>
</g>
<g opacity="0.25">
<path d="M117.923 141.282C117.739 141.651 113.451 149.829 102.3 140.113C100.278 136.854 98.2559 136.116 98.2559 136.116C102.116 135.624 103.341 138.883 109.101 141.528C114.615 144.049 117.678 141.528 117.923 141.343V141.282Z" fill="#330570" stroke="#1D1D1B" stroke-width="0.02" stroke-miterlimit="10"/>
</g>
</svg>
